<!-- Generated by readme-aura https://github.com/collectioneur/readme-aura -->
<svg width="800" height="130" viewBox="0 0 800 130" xmlns="http://www.w3.org/2000/svg"><defs><clipPath id="satori_bc-id"><rect x="0" y="0" width="800" height="130"/></clipPath></defs><mask id="satori_om-id"><rect x="0" y="1" width="800" height="129" fill="#fff"/><path width="800" height="130" fill="none" stroke="#000" stroke-width="2" d="M0,0 A0,0 0 0 1 0,0 h800 A0,0 0 0 1 800,0"/></mask><rect x="0" y="0" width="800" height="130" fill="#0d0d0d"/><path width="800" height="130" clip-path="url(#satori_bc-id)" fill="none" stroke="#1e1e1e" stroke-width="2" d="M0,0 A0,0 0 0 1 0,0 h800 A0,0 0 0 1 800,0"/><mask id="satori_om-id-0"><rect x="48" y="49" width="271" height="34" fill="#fff"/></mask><mask id="satori_om-id-0-0"><rect x="48" y="49" width="271" height="13" fill="#fff"/></mask><g  ><path fill="#555555" d="M50.0 60L49.0 60L49.0 52.0L51.7 52.0Q52.6 52.0 53.2 52.3Q53.8 52.7 54.1 53.3Q54.4 53.8 54.4 54.5Q54.4 55.3 54.1 55.8Q53.8 56.4 53.2 56.8Q52.6 57.1 51.7 57.1L51.7 57.1L50.0 57.1L50.0 60ZM50.0 52.9L50.0 56.2L51.7 56.2Q52.3 56.2 52.7 56.0Q53.1 55.8 53.2 55.4Q53.4 55.0 53.4 54.5Q53.4 54.1 53.2 53.7Q53.1 53.3 52.7 53.1Q52.3 52.9 51.7 52.9L51.7 52.9L50.0 52.9ZM58.0 60L57.0 60L57.0 52.0L59.7 52.0Q60.7 52.0 61.3 52.3Q61.9 52.6 62.2 53.2Q62.5 53.8 62.5 54.5Q62.5 55.2 62.2 55.7Q61.9 56.3 61.3 56.6L61.3 56.6Q61.1 56.7 61.0 56.7L61.0 56.7L62.8 60L61.6 60L59.9 56.9Q59.8 56.9 59.7 56.9L59.7 56.9L58.0 56.9L58.0 60ZM58.0 52.9L58.0 56.0L59.7 56.0Q60.3 56.0 60.7 55.8Q61.1 55.6 61.3 55.3Q61.4 54.9 61.4 54.5L61.4 54.5Q61.4 54.0 61.3 53.6Q61.1 53.3 60.7 53.1Q60.3 52.9 59.7 52.9L59.7 52.9L58.0 52.9ZM68.3 60.1L68.3 60.1Q67.3 60.1 66.5 59.6Q65.7 59.1 65.2 58.2Q64.8 57.3 64.8 56.0L64.8 56.0Q64.8 54.7 65.2 53.8Q65.7 52.9 66.5 52.4Q67.3 51.9 68.3 51.9L68.3 51.9Q69.3 51.9 70.1 52.4Q70.9 52.9 71.4 53.8Q71.9 54.7 71.9 56.0L71.9 56.0Q71.9 57.3 71.4 58.2Q70.9 59.1 70.1 59.6Q69.3 60.1 68.3 60.1ZM68.3 59.2L68.3 59.2Q69.0 59.2 69.6 58.8Q70.2 58.4 70.5 57.7Q70.9 57.0 70.9 56.0L70.9 56.0Q70.9 55.0 70.5 54.3Q70.2 53.6 69.6 53.2Q69.0 52.8 68.3 52.8L68.3 52.8Q67.6 52.8 67.0 53.2Q66.4 53.6 66.1 54.3Q65.8 55.0 65.8 56.0L65.8 56.0Q65.8 57.0 66.1 57.7Q66.4 58.4 67.0 58.8Q67.6 59.2 68.3 59.2ZM76.4 60.1L76.4 60.1Q75.4 60.1 74.7 59.5Q74.1 58.9 74.1 57.7L74.1 57.7L74.1 57.3L75.1 57.3L75.1 57.7Q75.1 58.4 75.4 58.8Q75.8 59.2 76.4 59.2L76.4 59.2Q77.1 59.2 77.4 58.8Q77.8 58.4 77.8 57.7L77.8 57.7L77.8 52.0L78.8 52.0L78.8 57.7Q78.8 58.9 78.2 59.5Q77.5 60.1 76.4 60.1ZM86.7 60L81.8 60L81.8 52.0L86.6 52.0L86.6 52.9L82.8 52.9L82.8 55.5L86.4 55.5L86.4 56.4L82.8 56.4L82.8 59.1L86.7 59.1L86.7 60ZM92.6 60.1L92.6 60.1Q91.6 60.1 90.8 59.6Q90.0 59.1 89.5 58.2Q89.1 57.3 89.1 56.0L89.1 56.0Q89.1 54.7 89.5 53.8Q90.0 52.9 90.8 52.4Q91.6 51.9 92.6 51.9L92.6 51.9Q93.2 51.9 93.8 52.1Q94.3 52.2 94.7 52.6Q95.2 52.9 95.4 53.4Q95.7 53.9 95.8 54.5L95.8 54.5L94.8 54.5Q94.7 54.1 94.5 53.8Q94.3 53.5 94.0 53.3Q93.7 53.0 93.4 52.9Q93.0 52.8 92.6 52.8L92.6 52.8Q91.9 52.8 91.3 53.2Q90.7 53.6 90.4 54.3Q90.1 55.0 90.1 56.0L90.1 56.0Q90.1 57.0 90.4 57.7Q90.7 58.4 91.3 58.8Q91.9 59.2 92.6 59.2L92.6 59.2Q93.0 59.2 93.4 59.1Q93.7 58.9 94.0 58.7Q94.3 58.5 94.5 58.2Q94.7 57.9 94.8 57.5L94.8 57.5L95.8 57.5Q95.7 58.1 95.5 58.6Q95.2 59.1 94.7 59.4Q94.3 59.7 93.8 59.9Q93.2 60.1 92.6 60.1ZM100.5 52.9L98.0 52.9L98.0 52.0L104.0 52.0L104.0 52.9L101.5 52.9L101.5 60L100.5 60L100.5 52.9ZM109.1 60.1L109.1 60.1Q108.2 60.1 107.6 59.9Q106.9 59.6 106.6 59.1Q106.2 58.6 106.2 57.9L106.2 57.9L107.2 57.9Q107.3 58.4 107.5 58.6Q107.8 58.9 108.2 59.1Q108.6 59.2 109.1 59.2L109.1 59.2Q109.6 59.2 110.0 59.0Q110.5 58.9 110.7 58.5Q111.0 58.2 111.0 57.8L111.0 57.8Q111.0 57.4 110.8 57.2Q110.5 56.9 110.2 56.8Q109.8 56.6 109.4 56.5L109.4 56.5L108.4 56.2Q107.5 56.0 106.9 55.4Q106.4 54.9 106.4 54.1L106.4 54.1Q106.4 53.5 106.8 53.0Q107.1 52.4 107.7 52.2Q108.4 51.9 109.1 51.9L109.1 51.9Q109.9 51.9 110.5 52.2Q111.1 52.4 111.5 52.9Q111.8 53.4 111.9 54.0L111.9 54.0L110.9 54.0Q110.8 53.4 110.3 53.1Q109.8 52.8 109.1 52.8L109.1 52.8Q108.6 52.8 108.2 53.0Q107.8 53.1 107.6 53.4Q107.4 53.7 107.4 54.1L107.4 54.1Q107.4 54.5 107.6 54.8Q107.9 55.0 108.3 55.2Q108.6 55.3 108.9 55.4L108.9 55.4L109.7 55.6Q110.0 55.7 110.4 55.8Q110.8 56.0 111.2 56.2Q111.5 56.5 111.7 56.9Q112.0 57.3 112.0 57.8L112.0 57.8Q112.0 58.5 111.6 59.0Q111.3 59.5 110.6 59.8Q110.0 60.1 109.1 60.1Z "/></g><mask id="satori_om-id-0-1"><rect x="48" y="66" width="271" height="17" fill="#fff"/></mask><g  ><path fill="#cccccc" d="M50.5 80L49.2 80L49.2 69.8L55.4 69.8L55.4 71.0L50.5 71.0L50.5 74.4L54.9 74.4L54.9 75.6L50.5 75.6L50.5 80ZM58.6 80L57.3 80L57.3 72.4L58.6 72.4L58.6 80ZM58.0 71.1L58.0 71.1Q57.6 71.1 57.4 70.9Q57.1 70.6 57.1 70.3L57.1 70.3Q57.1 70.0 57.4 69.7Q57.6 69.5 58.0 69.5L58.0 69.5Q58.3 69.5 58.6 69.7Q58.8 70.0 58.8 70.3L58.8 70.3Q58.8 70.6 58.6 70.9Q58.3 71.1 58.0 71.1ZM62.0 80L60.7 80L60.7 72.4L62.0 72.4L62.0 80ZM61.4 71.1L61.4 71.1Q61.0 71.1 60.8 70.9Q60.5 70.6 60.5 70.3L60.5 70.3Q60.5 70.0 60.8 69.7Q61.0 69.5 61.4 69.5L61.4 69.5Q61.7 69.5 62.0 69.7Q62.2 70.0 62.2 70.3L62.2 70.3Q62.2 70.6 62.0 70.9Q61.7 71.1 61.4 71.1ZM65.4 82.9L64.1 82.9L64.1 72.4L65.3 72.4L65.3 73.6L65.5 73.6Q65.6 73.4 65.8 73.1Q66.0 72.8 66.5 72.5Q66.9 72.3 67.7 72.3L67.7 72.3Q68.6 72.3 69.4 72.7Q70.1 73.2 70.5 74.1Q70.9 75.0 70.9 76.2L70.9 76.2Q70.9 77.4 70.5 78.3Q70.1 79.2 69.4 79.7Q68.6 80.2 67.7 80.2L67.7 80.2Q66.9 80.2 66.5 79.9Q66.1 79.7 65.8 79.3Q65.6 79.0 65.5 78.8L65.5 78.8L65.4 78.8L65.4 82.9ZM67.5 79.1L67.5 79.1Q68.2 79.1 68.7 78.7Q69.2 78.3 69.4 77.6Q69.7 77.0 69.7 76.2L69.7 76.2Q69.7 75.4 69.4 74.8Q69.2 74.1 68.7 73.7Q68.2 73.4 67.5 73.4L67.5 73.4Q66.8 73.4 66.3 73.7Q65.8 74.1 65.6 74.7Q65.3 75.3 65.3 76.2L65.3 76.2Q65.3 77.0 65.6 77.7Q65.8 78.3 66.3 78.7Q66.8 79.1 67.5 79.1Z M77.6 76.1L77.6 76.1Q77.2 76.1 76.9 75.8Q76.6 75.5 76.6 75.2L76.6 75.2Q76.6 74.8 76.9 74.5Q77.2 74.2 77.6 74.2L77.6 74.2Q78.0 74.2 78.2 74.5Q78.5 74.8 78.5 75.2L78.5 75.2Q78.5 75.5 78.2 75.8Q78.0 76.1 77.6 76.1Z M88.9 80.1L88.9 80.1Q87.6 80.1 86.6 79.5Q85.5 78.9 84.9 77.7Q84.4 76.5 84.4 74.9L84.4 74.9Q84.4 73.3 84.9 72.1Q85.5 70.9 86.6 70.3Q87.6 69.7 88.9 69.7L88.9 69.7Q89.7 69.7 90.3 69.9Q91.0 70.1 91.6 70.6Q92.1 71.0 92.5 71.6Q92.9 72.2 93.0 73.0L93.0 73.0L91.7 73.0Q91.6 72.5 91.3 72.1Q91.1 71.7 90.7 71.4Q90.3 71.2 89.8 71.0Q89.4 70.9 88.9 70.9L88.9 70.9Q88.0 70.9 87.2 71.3Q86.5 71.8 86.1 72.7Q85.6 73.6 85.6 74.9L85.6 74.9Q85.6 76.2 86.1 77.1Q86.5 78.0 87.2 78.5Q88.0 78.9 88.9 78.9L88.9 78.9Q89.4 78.9 89.8 78.8Q90.3 78.7 90.7 78.4Q91.1 78.1 91.3 77.7Q91.6 77.3 91.7 76.8L91.7 76.8L93.0 76.8Q92.9 77.6 92.5 78.2Q92.1 78.8 91.6 79.2Q91.0 79.7 90.3 79.9Q89.7 80.1 88.9 80.1ZM97.0 80.2L97.0 80.2Q96.2 80.2 95.7 79.9Q95.1 79.6 94.7 79.1Q94.4 78.6 94.4 77.8L94.4 77.8Q94.4 77.2 94.6 76.8Q94.9 76.3 95.3 76.1Q95.8 75.9 96.3 75.8Q96.8 75.6 97.3 75.6L97.3 75.6Q98.0 75.5 98.5 75.4Q98.9 75.4 99.1 75.3Q99.3 75.2 99.3 74.9L99.3 74.9L99.3 74.8Q99.3 74.4 99.1 74.0Q98.9 73.7 98.6 73.5Q98.2 73.3 97.7 73.3L97.7 73.3Q97.2 73.3 96.8 73.5Q96.4 73.7 96.1 73.9Q95.9 74.2 95.8 74.5L95.8 74.5L94.6 74.1Q94.9 73.4 95.4 73.0Q95.9 72.6 96.5 72.4Q97.1 72.3 97.7 72.3L97.7 72.3Q98.1 72.3 98.5 72.4Q99.0 72.4 99.5 72.7Q99.9 73.0 100.2 73.5Q100.5 74.1 100.5 75.0L100.5 75.0L100.5 80L99.3 80L99.3 79.0L99.2 79.0Q99.1 79.2 98.8 79.5Q98.5 79.8 98.1 80.0Q97.6 80.2 97.0 80.2ZM97.2 79.1L97.2 79.1Q97.9 79.1 98.3 78.8Q98.8 78.6 99.1 78.1Q99.3 77.7 99.3 77.2L99.3 77.2L99.3 76.2Q99.2 76.3 99.0 76.3Q98.7 76.4 98.4 76.5Q98.1 76.5 97.8 76.6Q97.5 76.6 97.3 76.6L97.3 76.6Q96.8 76.7 96.5 76.8Q96.1 76.9 95.8 77.2Q95.6 77.5 95.6 77.9L95.6 77.9Q95.6 78.3 95.8 78.6Q96.0 78.8 96.4 79.0Q96.7 79.1 97.2 79.1ZM102.7 69.8L103.9 69.8L103.9 80L102.7 80L102.7 69.8ZM107.5 72.4L109.1 72.4L109.1 73.4L107.5 73.4L107.5 78.0Q107.5 78.5 107.7 78.8Q107.9 79.0 108.4 79.0L108.4 79.0Q108.5 79.0 108.7 79.0Q108.9 78.9 109.1 78.9L109.1 78.9L109.3 80.0Q109.1 80.0 108.9 80.1Q108.6 80.1 108.4 80.1L108.4 80.1Q107.4 80.1 106.8 79.6Q106.3 79.0 106.3 78.1L106.3 78.1L106.3 73.4L105.1 73.4L105.1 72.4L106.3 72.4L106.3 70.5L107.5 70.5L107.5 72.4ZM113.9 80.2L113.9 80.2Q112.8 80.2 112.0 79.7Q111.2 79.2 110.7 78.3Q110.3 77.4 110.3 76.2Q110.3 75.1 110.7 74.2Q111.1 73.3 111.9 72.8Q112.7 72.3 113.7 72.3L113.7 72.3Q114.3 72.3 114.9 72.5Q115.5 72.7 116.0 73.1Q116.5 73.6 116.8 74.3Q117.1 75.0 117.1 76.1L117.1 76.1L117.1 76.6L111.5 76.6Q111.6 77.3 111.8 77.9L111.8 77.9Q112.1 78.5 112.7 78.8Q113.2 79.1 113.9 79.1L113.9 79.1Q114.3 79.1 114.7 78.9Q115.1 78.8 115.3 78.5Q115.6 78.3 115.8 77.9L115.8 77.9L116.9 78.2Q116.8 78.8 116.3 79.2Q115.9 79.7 115.3 79.9Q114.7 80.2 113.9 80.2ZM111.5 75.6L111.5 75.6L115.8 75.6Q115.8 75.0 115.6 74.6L115.6 74.6Q115.4 74.0 114.9 73.7Q114.4 73.4 113.7 73.4Q113.0 73.4 112.6 73.7Q112.1 74.0 111.8 74.6L111.8 74.6Q111.6 75.0 111.5 75.6ZM120.1 80L118.8 80L118.8 72.4L120.0 72.4L120.0 73.8Q120.2 73.3 120.4 73.0L120.4 73.0Q120.8 72.6 121.2 72.4Q121.7 72.2 122.2 72.2L122.2 72.2Q123.0 72.2 123.5 72.7L123.5 72.7Q123.9 73.2 124.1 73.8L124.1 73.8Q124.3 73.4 124.5 73.1L124.5 73.1Q124.9 72.7 125.4 72.4Q125.9 72.2 126.5 72.2L126.5 72.2Q127.2 72.2 127.7 72.5Q128.3 72.8 128.6 73.4Q128.9 74.0 128.9 74.8L128.9 74.8L128.9 80L127.7 80L127.7 74.9Q127.7 74.1 127.2 73.7Q126.8 73.3 126.2 73.3L126.2 73.3Q125.6 73.3 125.3 73.6Q124.9 73.8 124.7 74.1Q124.5 74.5 124.5 75.0L124.5 75.0L124.5 80L123.3 80L123.3 74.8Q123.3 74.1 122.8 73.7Q122.4 73.3 121.8 73.3L121.8 73.3Q121.3 73.3 120.9 73.6Q120.5 73.8 120.3 74.2Q120.1 74.6 120.1 75.2L120.1 75.2L120.1 80ZM132.3 82.9L131.1 82.9L131.1 72.4L132.3 72.4L132.3 73.6L132.4 73.6Q132.5 73.4 132.8 73.1Q133.0 72.8 133.4 72.5Q133.9 72.3 134.6 72.3L134.6 72.3Q135.6 72.3 136.3 72.7Q137.0 73.2 137.5 74.1Q137.9 75.0 137.9 76.2L137.9 76.2Q137.9 77.4 137.5 78.3Q137.1 79.2 136.3 79.7Q135.6 80.2 134.6 80.2L134.6 80.2Q133.9 80.2 133.5 79.9Q133.0 79.7 132.8 79.3Q132.5 79.0 132.4 78.8L132.4 78.8L132.3 78.8L132.3 82.9ZM134.5 79.1L134.5 79.1Q135.2 79.1 135.7 78.7Q136.1 78.3 136.4 77.6Q136.6 77.0 136.6 76.2L136.6 76.2Q136.6 75.4 136.4 74.8Q136.1 74.1 135.7 73.7Q135.2 73.4 134.5 73.4L134.5 73.4Q133.8 73.4 133.3 73.7Q132.8 74.1 132.6 74.7Q132.3 75.3 132.3 76.2L132.3 76.2Q132.3 77.0 132.6 77.7Q132.8 78.3 133.3 78.7Q133.8 79.1 134.5 79.1Z M144.5 76.1L144.5 76.1Q144.2 76.1 143.9 75.8Q143.6 75.5 143.6 75.2L143.6 75.2Q143.6 74.8 143.9 74.5Q144.2 74.2 144.5 74.2L144.5 74.2Q144.9 74.2 145.2 74.5Q145.5 74.8 145.5 75.2L145.5 75.2Q145.5 75.5 145.2 75.8Q144.9 76.1 144.5 76.1Z M154.9 80L154.9 80L151.7 80L151.7 69.8L155.0 69.8Q156.5 69.8 157.6 70.4Q158.6 71.0 159.2 72.2Q159.8 73.3 159.8 74.9L159.8 74.9Q159.8 76.5 159.2 77.6Q158.6 78.8 157.5 79.4Q156.5 80 154.9 80ZM153.0 71.0L153.0 78.9L154.8 78.9Q156.1 78.9 156.9 78.4Q157.7 77.9 158.1 77.0Q158.5 76.1 158.5 74.9L158.5 74.9Q158.5 73.7 158.1 72.8Q157.7 71.9 156.9 71.4Q156.1 71.0 154.9 71.0L154.9 71.0L153.0 71.0ZM161.6 82.8L161.6 82.8L161.9 81.7L162.0 81.7Q162.4 81.8 162.7 81.8Q163.0 81.7 163.2 81.5Q163.5 81.2 163.7 80.7L163.7 80.7L163.9 80.0L161.0 72.4L162.3 72.4L163.9 76.9Q164.2 77.6 164.4 78.3L164.4 78.3Q164.5 78.6 164.5 78.9L164.5 78.9Q164.6 78.6 164.7 78.3L164.7 78.3Q164.9 77.6 165.1 76.9L165.1 76.9L166.8 72.4L168.1 72.4L164.7 81.1Q164.5 81.8 164.2 82.1Q163.9 82.5 163.4 82.7Q163.0 82.9 162.5 82.9L162.5 82.9Q162.1 82.9 161.9 82.9Q161.6 82.8 161.6 82.8ZM170.8 75.4L170.8 75.4L170.8 80L169.5 80L169.5 72.4L170.7 72.4L170.7 73.8Q171.1 73.1 171.6 72.7L171.6 72.7Q172.2 72.3 173.1 72.3L173.1 72.3Q173.8 72.3 174.4 72.6Q175.0 72.9 175.3 73.5Q175.7 74.2 175.7 75.1L175.7 75.1L175.7 80L174.4 80L174.4 75.2Q174.4 74.4 174.0 73.9Q173.5 73.4 172.7 73.4L172.7 73.4Q172.2 73.4 171.7 73.6Q171.3 73.8 171.0 74.3Q170.8 74.8 170.8 75.4ZM180.0 80.2L180.0 80.2Q179.2 80.2 178.6 79.9Q178.0 79.6 177.7 79.1Q177.3 78.6 177.3 77.8L177.3 77.8Q177.3 77.2 177.6 76.8Q177.9 76.3 178.3 76.1Q178.7 75.9 179.3 75.8Q179.8 75.6 180.3 75.6L180.3 75.6Q181.0 75.5 181.4 75.4Q181.9 75.4 182.1 75.3Q182.3 75.2 182.3 74.9L182.3 74.9L182.3 74.8Q182.3 74.4 182.1 74.0Q181.9 73.7 181.6 73.5Q181.2 73.3 180.7 73.3L180.7 73.3Q180.1 73.3 179.7 73.5Q179.4 73.7 179.1 73.9Q178.9 74.2 178.8 74.5L178.8 74.5L177.6 74.1Q177.9 73.4 178.4 73.0Q178.9 72.6 179.5 72.4Q180.1 72.3 180.7 72.3L180.7 72.3Q181.0 72.3 181.5 72.4Q182.0 72.4 182.5 72.7Q182.9 73.0 183.2 73.5Q183.5 74.1 183.5 75.0L183.5 75.0L183.5 80L182.3 80L182.3 79.0L182.2 79.0Q182.1 79.2 181.8 79.5Q181.5 79.8 181.1 80.0Q180.6 80.2 180.0 80.2ZM180.2 79.1L180.2 79.1Q180.8 79.1 181.3 78.8Q181.8 78.6 182.0 78.1Q182.3 77.7 182.3 77.2L182.3 77.2L182.3 76.2Q182.2 76.3 182.0 76.3Q181.7 76.4 181.4 76.5Q181.1 76.5 180.8 76.6Q180.4 76.6 180.3 76.6L180.3 76.6Q179.8 76.7 179.4 76.8Q179.1 76.9 178.8 77.2Q178.6 77.5 178.6 77.9L178.6 77.9Q178.6 78.3 178.8 78.6Q179.0 78.8 179.4 79.0Q179.7 79.1 180.2 79.1ZM186.9 80L185.7 80L185.7 72.4L186.9 72.4L186.9 73.8Q187.0 73.3 187.3 73.0L187.3 73.0Q187.6 72.6 188.1 72.4Q188.5 72.2 189.0 72.2L189.0 72.2Q189.9 72.2 190.4 72.7L190.4 72.7Q190.8 73.2 191.0 73.8L191.0 73.8Q191.1 73.4 191.4 73.1L191.4 73.1Q191.7 72.7 192.2 72.4Q192.8 72.2 193.4 72.2L193.4 72.2Q194.0 72.2 194.6 72.5Q195.1 72.8 195.5 73.4Q195.8 74.0 195.8 74.8L195.8 74.8L195.8 80L194.5 80L194.5 74.9Q194.5 74.1 194.1 73.7Q193.6 73.3 193.0 73.3L193.0 73.3Q192.5 73.3 192.1 73.6Q191.7 73.8 191.5 74.1Q191.3 74.5 191.3 75.0L191.3 75.0L191.3 80L190.1 80L190.1 74.8Q190.1 74.1 189.7 73.7Q189.3 73.3 188.6 73.3L188.6 73.3Q188.2 73.3 187.8 73.6Q187.4 73.8 187.1 74.2Q186.9 74.6 186.9 75.2L186.9 75.2L186.9 80ZM199.2 80L197.9 80L197.9 72.4L199.2 72.4L199.2 80ZM198.6 71.1L198.6 71.1Q198.2 71.1 198.0 70.9Q197.7 70.6 197.7 70.3L197.7 70.3Q197.7 70.0 198.0 69.7Q198.2 69.5 198.6 69.5L198.6 69.5Q198.9 69.5 199.2 69.7Q199.4 70.0 199.4 70.3L199.4 70.3Q199.4 70.6 199.2 70.9Q198.9 71.1 198.6 71.1ZM204.4 80.2L204.4 80.2Q203.4 80.2 202.6 79.7Q201.8 79.2 201.4 78.3Q201.0 77.4 201.0 76.2L201.0 76.2Q201.0 75.0 201.4 74.1Q201.8 73.2 202.6 72.8Q203.4 72.3 204.4 72.3L204.4 72.3Q205.0 72.3 205.5 72.4Q206.0 72.5 206.4 72.8Q206.8 73.1 207.1 73.5Q207.4 73.9 207.5 74.4L207.5 74.4L206.4 74.7Q206.3 74.4 206.1 74.2Q205.9 73.9 205.7 73.7Q205.4 73.6 205.1 73.5Q204.8 73.4 204.4 73.4L204.4 73.4Q203.7 73.4 203.2 73.8Q202.7 74.2 202.5 74.8Q202.2 75.5 202.2 76.2L202.2 76.2Q202.2 77.0 202.5 77.6Q202.7 78.3 203.2 78.7Q203.7 79.1 204.4 79.1L204.4 79.1Q204.8 79.1 205.1 79.0Q205.5 78.9 205.7 78.7Q206.0 78.5 206.1 78.2Q206.3 78.0 206.4 77.7L206.4 77.7L207.6 78.0Q207.4 78.5 207.1 78.9Q206.8 79.3 206.4 79.6Q206.0 79.9 205.5 80.0Q205.0 80.2 204.4 80.2ZM212.9 80L211.4 80L208.6 69.8L209.9 69.8L211.5 76.1Q211.7 76.6 211.8 77.1Q211.9 77.6 212.0 78.1L212.0 78.1Q212.1 78.4 212.1 78.8L212.1 78.8Q212.2 78.4 212.3 78.1L212.3 78.1Q212.4 77.6 212.5 77.1Q212.6 76.6 212.8 76.1L212.8 76.1L214.4 69.8L215.9 69.8L217.5 76.1Q217.7 76.6 217.8 77.1Q217.9 77.6 218.0 78.1L218.0 78.1Q218.1 78.4 218.1 78.7L218.1 78.7Q218.2 78.4 218.3 78.1L218.3 78.1Q218.4 77.6 218.5 77.1Q218.6 76.6 218.7 76.1L218.7 76.1L220.3 69.8L221.7 69.8L218.9 80L217.4 80L215.6 73.5Q215.5 72.9 215.3 72.2L215.3 72.2Q215.2 71.8 215.1 71.3L215.1 71.3Q215.1 71.7 215.0 72.1L215.0 72.1Q214.8 72.8 214.6 73.5L214.6 73.5L212.9 80ZM224.4 80L223.1 80L223.1 72.4L224.4 72.4L224.4 80ZM223.7 71.1L223.7 71.1Q223.4 71.1 223.1 70.9Q222.9 70.6 222.9 70.3L222.9 70.3Q222.9 70.0 223.1 69.7Q223.4 69.5 223.7 69.5L223.7 69.5Q224.1 69.5 224.4 69.7Q224.6 70.0 224.6 70.3L224.6 70.3Q224.6 70.6 224.4 70.9Q224.1 71.1 223.7 71.1ZM227.7 75.4L227.7 75.4L227.7 80L226.5 80L226.5 72.4L227.7 72.4L227.7 73.8Q228.0 73.1 228.5 72.7L228.5 72.7Q229.2 72.3 230.0 72.3L230.0 72.3Q230.8 72.3 231.4 72.6Q232.0 72.9 232.3 73.5Q232.6 74.2 232.6 75.1L232.6 75.1L232.6 80L231.4 80L231.4 75.2Q231.4 74.4 230.9 73.9Q230.5 73.4 229.7 73.4L229.7 73.4Q229.1 73.4 228.7 73.6Q228.3 73.8 228.0 74.3Q227.7 74.8 227.7 75.4Z M239.7 76.1L239.7 76.1Q239.3 76.1 239.0 75.8Q238.7 75.5 238.7 75.2L238.7 75.2Q238.7 74.8 239.0 74.5Q239.3 74.2 239.7 74.2L239.7 74.2Q240.0 74.2 240.3 74.5Q240.6 74.8 240.6 75.2L240.6 75.2Q240.6 75.5 240.3 75.8Q240.0 76.1 239.7 76.1Z M246.8 69.8L248.1 69.8L248.1 80L246.8 80L246.8 69.8ZM253.2 71.0L250.0 71.0L250.0 69.8L257.7 69.8L257.7 71.0L254.5 71.0L254.5 80L253.2 80L253.2 71.0ZM262.1 80.1L262.1 80.1Q261.3 80.1 260.7 79.8Q260.1 79.5 259.8 78.8Q259.5 78.2 259.5 77.2L259.5 77.2L259.5 72.4L260.7 72.4L260.7 77.1Q260.7 78.0 261.2 78.5Q261.7 79.0 262.5 79.0L262.5 79.0Q263.0 79.0 263.4 78.7Q263.9 78.5 264.1 78.0Q264.4 77.6 264.4 76.9L264.4 76.9L264.4 72.4L265.6 72.4L265.6 80L264.4 80L264.4 78.6Q264.1 79.3 263.6 79.7L263.6 79.7Q262.9 80.1 262.1 80.1ZM269.0 75.4L269.0 75.4L269.0 80L267.8 80L267.8 72.4L269.0 72.4L269.0 73.8Q269.3 73.1 269.8 72.7L269.8 72.7Q270.4 72.3 271.3 72.3L271.3 72.3Q272.1 72.3 272.6 72.6Q273.2 72.9 273.6 73.5Q273.9 74.2 273.9 75.1L273.9 75.1L273.9 80L272.6 80L272.6 75.2Q272.6 74.4 272.2 73.9Q271.7 73.4 270.9 73.4L270.9 73.4Q270.4 73.4 269.9 73.6Q269.5 73.8 269.3 74.3Q269.0 74.8 269.0 75.4ZM279.3 80.2L279.3 80.2Q278.1 80.2 277.3 79.7Q276.5 79.2 276.1 78.3Q275.7 77.4 275.7 76.2Q275.7 75.1 276.1 74.2Q276.5 73.3 277.3 72.8Q278.1 72.3 279.1 72.3L279.1 72.3Q279.7 72.3 280.3 72.5Q280.9 72.7 281.4 73.1Q281.9 73.6 282.2 74.3Q282.4 75.0 282.4 76.1L282.4 76.1L282.4 76.6L276.9 76.6Q276.9 77.3 277.2 77.9L277.2 77.9Q277.5 78.5 278.0 78.8Q278.6 79.1 279.3 79.1L279.3 79.1Q279.7 79.1 280.1 78.9Q280.4 78.8 280.7 78.5Q281.0 78.3 281.1 77.9L281.1 77.9L282.3 78.2Q282.1 78.8 281.7 79.2Q281.3 79.7 280.7 79.9Q280.0 80.2 279.3 80.2ZM276.9 75.6L276.9 75.6L281.2 75.6Q281.1 75.0 281.0 74.6L281.0 74.6Q280.7 74.0 280.3 73.7Q279.8 73.4 279.1 73.4Q278.4 73.4 277.9 73.7Q277.4 74.0 277.2 74.6L277.2 74.6Q277.0 75.0 276.9 75.6ZM286.8 80.2L286.8 80.2Q286.0 80.2 285.4 79.9Q284.8 79.7 284.4 79.3Q284.0 78.8 283.9 78.1L283.9 78.1L285.0 77.9Q285.2 78.5 285.6 78.8Q286.1 79.1 286.8 79.1L286.8 79.1Q287.6 79.1 288.1 78.7Q288.5 78.4 288.5 77.9L288.5 77.9Q288.5 77.5 288.3 77.3Q288.0 77.0 287.4 76.9L287.4 76.9L286.1 76.6Q285.1 76.3 284.6 75.8Q284.1 75.3 284.1 74.5L284.1 74.5Q284.1 73.8 284.5 73.3Q284.8 72.8 285.5 72.5Q286.1 72.3 286.9 72.3L286.9 72.3Q287.7 72.3 288.3 72.5Q288.8 72.7 289.2 73.1Q289.5 73.6 289.7 74.1L289.7 74.1L288.6 74.4Q288.4 74.0 288.0 73.6Q287.7 73.3 286.9 73.3L286.9 73.3Q286.2 73.3 285.8 73.6Q285.3 73.9 285.3 74.4L285.3 74.4Q285.3 74.8 285.6 75.1Q286.0 75.4 286.6 75.5L286.6 75.5L287.8 75.8Q288.8 76.0 289.3 76.5Q289.8 77.1 289.8 77.8L289.8 77.8Q289.8 78.5 289.4 79.0Q289.1 79.6 288.4 79.9Q287.7 80.2 286.8 80.2ZM293.0 80L291.7 80L291.7 69.8L295.2 69.8Q296.4 69.8 297.2 70.2Q298.0 70.6 298.3 71.3Q298.7 72.0 298.7 73.0Q298.7 73.9 298.3 74.6Q298.0 75.3 297.2 75.7L297.2 75.7Q297.0 75.7 296.8 75.8L296.8 75.8L299.1 80L297.6 80L295.5 76.0Q295.4 76.0 295.2 76.0L295.2 76.0L293.0 76.0L293.0 80ZM293.0 71.0L293.0 74.9L295.2 74.9Q296.0 74.9 296.5 74.7Q297.0 74.4 297.2 74.0Q297.4 73.6 297.4 73.0L297.4 73.0Q297.4 72.4 297.2 71.9Q297.0 71.5 296.5 71.2Q296.0 71.0 295.2 71.0L295.2 71.0L293.0 71.0ZM302.1 80L300.8 80L300.8 69.8L304.2 69.8Q305.4 69.8 306.2 70.2Q307.0 70.7 307.3 71.4Q307.7 72.1 307.7 73.1Q307.7 74.0 307.3 74.7Q307.0 75.4 306.2 75.9Q305.4 76.3 304.2 76.3L304.2 76.3L302.1 76.3L302.1 80ZM302.1 71.0L302.1 75.2L304.2 75.2Q305.0 75.2 305.5 74.9Q306.0 74.6 306.2 74.1Q306.4 73.7 306.4 73.1Q306.4 72.5 306.2 72.0Q306.0 71.5 305.5 71.2Q305.0 71.0 304.2 71.0L304.2 71.0L302.1 71.0ZM313.8 80.1L313.8 80.1Q312.5 80.1 311.5 79.5Q310.5 78.9 309.9 77.7Q309.3 76.5 309.3 74.9L309.3 74.9Q309.3 73.3 309.9 72.1Q310.5 70.9 311.5 70.3Q312.5 69.7 313.8 69.7L313.8 69.7Q314.6 69.7 315.3 69.9Q316.0 70.1 316.5 70.6Q317.1 71.0 317.4 71.6Q317.8 72.2 317.9 73.0L317.9 73.0L316.6 73.0Q316.5 72.5 316.3 72.1Q316.0 71.7 315.6 71.4Q315.2 71.2 314.8 71.0Q314.3 70.9 313.8 70.9L313.8 70.9Q312.9 70.9 312.2 71.3Q311.4 71.8 311.0 72.7Q310.6 73.6 310.6 74.9L310.6 74.9Q310.6 76.2 311.0 77.1Q311.4 78.0 312.2 78.5Q312.9 78.9 313.8 78.9L313.8 78.9Q314.3 78.9 314.8 78.8Q315.2 78.7 315.6 78.4Q316.0 78.1 316.3 77.7Q316.5 77.3 316.6 76.8L316.6 76.8L317.9 76.8Q317.8 77.6 317.4 78.2Q317.1 78.8 316.5 79.2Q316.0 79.7 315.3 79.9Q314.6 80.1 313.8 80.1Z "/></g><mask id="satori_om-id-1"><rect x="533" y="58" width="219" height="16" fill="#fff"/></mask><mask id="satori_om-id-1-0"><rect x="533" y="58" width="60" height="16" fill="#fff"/></mask><mask id="satori_om-id-1-0-0"><rect x="533" y="63" width="6" height="6" fill="#fff"/></mask><path x="533" y="63" width="6" height="6" fill="#5865F2" d="M536,63 h0 a3,3 0 0 1 3,3 v0 a3,3 0 0 1 -3,3 h0 a3,3 0 0 1 -3,-3 v0 a3,3 0 0 1 3,-3"/><mask id="satori_om-id-1-0-1"><rect x="545" y="58" width="48" height="16" fill="#fff"/></mask><g  ><path fill="#777777" d="M549.1 71L549.1 71L546.1 71L546.1 61.5L549.2 61.5Q550.6 61.5 551.6 62.1Q552.6 62.7 553.1 63.7Q553.6 64.8 553.6 66.3L553.6 66.3Q553.6 67.7 553.1 68.8Q552.6 69.9 551.5 70.4Q550.5 71 549.1 71ZM547.3 62.6L547.3 69.9L549.0 69.9Q550.2 69.9 550.9 69.5Q551.7 69.1 552.1 68.2Q552.4 67.4 552.4 66.3L552.4 66.3Q552.4 65.1 552.1 64.3Q551.7 63.5 551.0 63.0Q550.2 62.6 549.1 62.6L549.1 62.6L547.3 62.6ZM556.5 71L555.4 71L555.4 63.9L556.5 63.9L556.5 71ZM556.0 62.7L556.0 62.7Q555.6 62.7 555.4 62.5Q555.2 62.3 555.2 62.0L555.2 62.0Q555.2 61.7 555.4 61.4Q555.6 61.2 556.0 61.2L556.0 61.2Q556.3 61.2 556.5 61.4Q556.8 61.7 556.8 62.0L556.8 62.0Q556.8 62.3 556.5 62.5Q556.3 62.7 556.0 62.7ZM560.9 71.2L560.9 71.2Q560.2 71.2 559.6 70.9Q559.1 70.7 558.7 70.3Q558.3 69.9 558.2 69.3L558.2 69.3L559.3 69.0Q559.5 69.6 559.9 69.9Q560.3 70.1 560.9 70.1L560.9 70.1Q561.7 70.1 562.1 69.8Q562.6 69.5 562.6 69.1L562.6 69.1Q562.6 68.7 562.3 68.5Q562.0 68.2 561.5 68.1L561.5 68.1L560.3 67.8Q559.4 67.6 558.9 67.1Q558.4 66.6 558.4 65.9L558.4 65.9Q558.4 65.3 558.8 64.8Q559.1 64.3 559.7 64.1Q560.3 63.8 561.1 63.8L561.1 63.8Q561.8 63.8 562.3 64.0Q562.8 64.3 563.1 64.6Q563.5 65.0 563.6 65.5L563.6 65.5L562.6 65.8Q562.4 65.4 562.1 65.1Q561.8 64.8 561.1 64.8L561.1 64.8Q560.4 64.8 560.0 65.1Q559.6 65.4 559.6 65.8L559.6 65.8Q559.6 66.2 559.9 66.4Q560.2 66.7 560.8 66.8L560.8 66.8L561.9 67.1Q562.8 67.3 563.3 67.8Q563.7 68.3 563.7 69.0L563.7 69.0Q563.7 69.6 563.4 70.1Q563.0 70.6 562.4 70.9Q561.8 71.2 560.9 71.2ZM568.3 71.2L568.3 71.2Q567.3 71.2 566.6 70.7Q565.9 70.2 565.5 69.4Q565.1 68.6 565.1 67.5L565.1 67.5Q565.1 66.4 565.5 65.6Q565.9 64.7 566.6 64.3Q567.3 63.8 568.3 63.8L568.3 63.8Q568.8 63.8 569.3 63.9Q569.7 64.1 570.1 64.3Q570.5 64.6 570.7 64.9Q571.0 65.3 571.2 65.8L571.2 65.8L570.1 66.1Q570.0 65.8 569.8 65.6Q569.7 65.4 569.4 65.2Q569.2 65.0 568.9 64.9Q568.6 64.8 568.3 64.8L568.3 64.8Q567.6 64.8 567.1 65.2Q566.7 65.6 566.4 66.2Q566.2 66.8 566.2 67.5L566.2 67.5Q566.2 68.2 566.4 68.8Q566.7 69.4 567.1 69.8Q567.6 70.1 568.3 70.1L568.3 70.1Q568.6 70.1 568.9 70.0Q569.2 69.9 569.5 69.8Q569.7 69.6 569.9 69.3Q570.0 69.1 570.1 68.8L570.1 68.8L571.2 69.1Q571.0 69.6 570.8 70.0Q570.5 70.4 570.1 70.6Q569.7 70.9 569.3 71.0Q568.8 71.2 568.3 71.2ZM575.7 71.2L575.7 71.2Q574.7 71.2 574.0 70.7Q573.3 70.2 572.9 69.4Q572.5 68.6 572.5 67.5L572.5 67.5Q572.5 66.4 572.9 65.6Q573.3 64.7 574.0 64.3Q574.7 63.8 575.7 63.8L575.7 63.8Q576.7 63.8 577.4 64.3Q578.1 64.7 578.5 65.6Q579.0 66.4 579.0 67.5L579.0 67.5Q579.0 68.6 578.5 69.4Q578.1 70.2 577.4 70.7Q576.7 71.2 575.7 71.2ZM575.7 70.1L575.7 70.1Q576.4 70.1 576.9 69.8Q577.4 69.4 577.6 68.8Q577.8 68.2 577.8 67.5L577.8 67.5Q577.8 66.8 577.6 66.2Q577.4 65.6 576.9 65.2Q576.4 64.8 575.7 64.8L575.7 64.8Q575.0 64.8 574.5 65.2Q574.1 65.6 573.9 66.2Q573.6 66.8 573.6 67.5L573.6 67.5Q573.6 68.2 573.9 68.8Q574.1 69.4 574.5 69.8Q575.0 70.1 575.7 70.1ZM581.8 71L580.6 71L580.6 63.9L581.7 63.9L581.7 65.0L581.8 65.0Q582.0 64.5 582.5 64.1Q583.0 63.8 583.6 63.8L583.6 63.8Q583.8 63.8 583.9 63.8Q584.1 63.8 584.2 63.8L584.2 63.8L584.2 65.0Q584.2 65.0 584.0 64.9Q583.8 64.9 583.5 64.9L583.5 64.9Q583.0 64.9 582.6 65.1Q582.2 65.3 582.0 65.7Q581.8 66.1 581.8 66.6L581.8 66.6L581.8 71ZM588.2 71.2L588.2 71.2Q587.3 71.2 586.6 70.7Q585.9 70.3 585.5 69.4Q585.2 68.6 585.2 67.5L585.2 67.5Q585.2 66.3 585.6 65.5Q585.9 64.7 586.6 64.3Q587.3 63.8 588.2 63.8L588.2 63.8Q588.9 63.8 589.3 64.0Q589.7 64.3 589.9 64.6Q590.1 64.8 590.2 65.0L590.2 65.0L590.3 65.0L590.3 61.5L591.5 61.5L591.5 71L590.4 71L590.4 69.9L590.2 69.9Q590.1 70.1 589.9 70.4Q589.7 70.7 589.3 70.9Q588.8 71.2 588.2 71.2ZM588.3 70.1L588.3 70.1Q589.0 70.1 589.4 69.8Q589.9 69.5 590.1 68.8Q590.3 68.2 590.3 67.5L590.3 67.5Q590.3 66.7 590.1 66.1Q589.9 65.5 589.4 65.2Q589.0 64.8 588.3 64.8L588.3 64.8Q587.7 64.8 587.2 65.2Q586.8 65.5 586.6 66.1Q586.3 66.7 586.3 67.5L586.3 67.5Q586.3 68.2 586.6 68.8Q586.8 69.4 587.2 69.8Q587.7 70.1 588.3 70.1Z "/></g><mask id="satori_om-id-1-1"><rect x="617" y="58" width="68" height="16" fill="#fff"/></mask><mask id="satori_om-id-1-1-0"><rect x="617" y="63" width="6" height="6" fill="#fff"/></mask><path x="617" y="63" width="6" height="6" fill="#FF0000" d="M620,63 h0 a3,3 0 0 1 3,3 v0 a3,3 0 0 1 -3,3 h0 a3,3 0 0 1 -3,-3 v0 a3,3 0 0 1 3,-3"/><mask id="satori_om-id-1-1-1"><rect x="629" y="58" width="56" height="16" fill="#fff"/></mask><g  ><path fill="#777777" d="M634.0 71L632.8 71L632.8 67.1L629.3 61.5L630.7 61.5L632.6 64.6Q632.9 65.1 633.2 65.6L633.2 65.6Q633.3 65.8 633.4 66.1L633.4 66.1Q633.6 65.8 633.7 65.6L633.7 65.6Q633.9 65.1 634.2 64.6L634.2 64.6L636.1 61.5L637.5 61.5L634.0 67.1L634.0 71ZM641.7 71.2L641.7 71.2Q640.7 71.2 640.0 70.7Q639.3 70.2 638.9 69.4Q638.5 68.6 638.5 67.5L638.5 67.5Q638.5 66.4 638.9 65.6Q639.3 64.7 640.0 64.3Q640.7 63.8 641.7 63.8L641.7 63.8Q642.7 63.8 643.4 64.3Q644.1 64.7 644.6 65.6Q645.0 66.4 645.0 67.5L645.0 67.5Q645.0 68.6 644.6 69.4Q644.1 70.2 643.4 70.7Q642.7 71.2 641.7 71.2ZM641.7 70.1L641.7 70.1Q642.4 70.1 642.9 69.8Q643.4 69.4 643.6 68.8Q643.8 68.2 643.8 67.5L643.8 67.5Q643.8 66.8 643.6 66.2Q643.4 65.6 642.9 65.2Q642.4 64.8 641.7 64.8L641.7 64.8Q641.0 64.8 640.5 65.2Q640.1 65.6 639.9 66.2Q639.6 66.8 639.6 67.5L639.6 67.5Q639.6 68.2 639.9 68.8Q640.1 69.4 640.5 69.8Q641.0 70.1 641.7 70.1ZM649.0 71.1L649.0 71.1Q648.3 71.1 647.8 70.8Q647.2 70.5 646.9 69.9Q646.6 69.3 646.6 68.4L646.6 68.4L646.6 63.9L647.8 63.9L647.8 68.3Q647.8 69.1 648.2 69.6Q648.6 70.1 649.4 70.1L649.4 70.1Q649.9 70.1 650.3 69.8Q650.7 69.6 650.9 69.2Q651.2 68.8 651.2 68.2L651.2 68.2L651.2 63.9L652.3 63.9L652.3 71L651.2 71L651.2 69.7Q650.9 70.4 650.4 70.7L650.4 70.7Q649.8 71.1 649.0 71.1ZM656.9 62.6L653.9 62.6L653.9 61.5L661.1 61.5L661.1 62.6L658.1 62.6L658.1 71L656.9 71L656.9 62.6ZM665.1 71.1L665.1 71.1Q664.4 71.1 663.8 70.8Q663.3 70.5 663.0 69.9Q662.7 69.3 662.7 68.4L662.7 68.4L662.7 63.9L663.8 63.9L663.8 68.3Q663.8 69.1 664.3 69.6Q664.7 70.1 665.4 70.1L665.4 70.1Q666.0 70.1 666.4 69.8Q666.8 69.6 667.0 69.2Q667.2 68.8 667.2 68.2L667.2 68.2L667.2 63.9L668.4 63.9L668.4 71L667.3 71L667.3 69.7Q667.0 70.4 666.5 70.7L666.5 70.7Q665.9 71.1 665.1 71.1ZM673.7 71.2L673.7 71.2Q673.0 71.2 672.6 70.9Q672.2 70.7 672.0 70.4Q671.7 70.1 671.6 69.9L671.6 69.9L671.5 69.9L671.5 71L670.4 71L670.4 61.5L671.5 61.5L671.5 65.0L671.6 65.0Q671.7 64.8 672.0 64.6Q672.2 64.3 672.6 64.0Q673.0 63.8 673.7 63.8L673.7 63.8Q674.6 63.8 675.2 64.3Q675.9 64.7 676.3 65.5Q676.7 66.3 676.7 67.5L676.7 67.5Q676.7 68.6 676.3 69.4Q675.9 70.3 675.2 70.7Q674.6 71.2 673.7 71.2ZM673.5 70.1L673.5 70.1Q674.2 70.1 674.6 69.8Q675.1 69.4 675.3 68.8Q675.5 68.2 675.5 67.5L675.5 67.5Q675.5 66.7 675.3 66.1Q675.1 65.5 674.6 65.2Q674.2 64.8 673.5 64.8L673.5 64.8Q672.9 64.8 672.4 65.2Q672.0 65.5 671.7 66.1Q671.5 66.7 671.5 67.5L671.5 67.5Q671.5 68.2 671.7 68.8Q672.0 69.5 672.4 69.8Q672.9 70.1 673.5 70.1ZM681.3 71.2L681.3 71.2Q680.3 71.2 679.6 70.7Q678.8 70.2 678.4 69.4Q678.0 68.6 678.0 67.5Q678.0 66.4 678.4 65.6Q678.8 64.8 679.5 64.3Q680.2 63.8 681.2 63.8L681.2 63.8Q681.8 63.8 682.3 64.0Q682.9 64.2 683.3 64.6Q683.8 65.0 684.0 65.7Q684.3 66.4 684.3 67.4L684.3 67.4L684.3 67.8L679.2 67.8Q679.2 68.5 679.4 69.0L679.4 69.0Q679.7 69.6 680.2 69.9Q680.7 70.1 681.3 70.1L681.3 70.1Q681.8 70.1 682.1 70.0Q682.4 69.9 682.7 69.7Q682.9 69.4 683.1 69.0L683.1 69.0L684.2 69.3Q684.0 69.9 683.6 70.3Q683.2 70.7 682.6 70.9Q682.1 71.2 681.3 71.2ZM679.2 66.9L679.2 66.9L683.1 66.9Q683.1 66.4 682.9 66.0L682.9 66.0Q682.7 65.4 682.3 65.1Q681.8 64.8 681.2 64.8Q680.6 64.8 680.1 65.1Q679.6 65.5 679.4 66.0L679.4 66.0Q679.2 66.4 679.2 66.9Z "/></g><mask id="satori_om-id-1-2"><rect x="709" y="58" width="43" height="16" fill="#fff"/></mask><mask id="satori_om-id-1-2-0"><rect x="709" y="63" width="6" height="6" fill="#fff"/></mask><path x="709" y="63" width="6" height="6" fill="#FF5E5B" d="M712,63 h0 a3,3 0 0 1 3,3 v0 a3,3 0 0 1 -3,3 h0 a3,3 0 0 1 -3,-3 v0 a3,3 0 0 1 3,-3"/><mask id="satori_om-id-1-2-1"><rect x="721" y="58" width="31" height="16" fill="#fff"/></mask><g  ><path fill="#777777" d="M723.3 71L722.1 71L722.1 61.5L723.3 61.5L723.3 64.8L723.3 66.5Q723.5 66.3 723.6 66.2L723.6 66.2Q723.9 65.8 724.3 65.4Q724.6 65.0 725.0 64.6L725.0 64.6L727.8 61.5L729.4 61.5L725.5 65.6L729.4 71L727.9 71L724.7 66.5L723.3 67.9L723.3 71ZM733.6 71.2L733.6 71.2Q732.7 71.2 731.9 70.7Q731.2 70.2 730.8 69.4Q730.4 68.6 730.4 67.5L730.4 67.5Q730.4 66.4 730.8 65.6Q731.2 64.7 731.9 64.3Q732.7 63.8 733.6 63.8L733.6 63.8Q734.6 63.8 735.3 64.3Q736.1 64.7 736.5 65.6Q736.9 66.4 736.9 67.5L736.9 67.5Q736.9 68.6 736.5 69.4Q736.1 70.2 735.3 70.7Q734.6 71.2 733.6 71.2ZM733.6 70.1L733.6 70.1Q734.3 70.1 734.8 69.8Q735.3 69.4 735.5 68.8Q735.7 68.2 735.7 67.5L735.7 67.5Q735.7 66.8 735.5 66.2Q735.3 65.6 734.8 65.2Q734.3 64.8 733.6 64.8L733.6 64.8Q732.9 64.8 732.5 65.2Q732.0 65.6 731.8 66.2Q731.6 66.8 731.6 67.5L731.6 67.5Q731.6 68.2 731.8 68.8Q732.0 69.4 732.5 69.8Q732.9 70.1 733.6 70.1ZM738.4 66.4L742.6 66.4L742.6 67.5L738.4 67.5L738.4 66.4ZM746.2 63.9L747.8 63.9L747.8 64.9L746.2 64.9L746.2 71L745.0 71L745.0 64.9L743.6 64.9L743.6 63.9L745.0 63.9L745.0 63.0Q745.0 62.3 745.3 61.9Q745.6 61.5 746.1 61.3Q746.5 61.1 747.1 61.1L747.1 61.1Q747.5 61.1 747.7 61.2Q748.0 61.2 748.1 61.3L748.1 61.3L747.8 62.3Q747.7 62.2 747.6 62.2Q747.4 62.2 747.2 62.2L747.2 62.2Q746.7 62.2 746.4 62.4Q746.2 62.7 746.2 63.2L746.2 63.2L746.2 63.9ZM750.5 71L749.3 71L749.3 63.9L750.5 63.9L750.5 71ZM749.9 62.7L749.9 62.7Q749.6 62.7 749.3 62.5Q749.1 62.3 749.1 62.0L749.1 62.0Q749.1 61.7 749.3 61.4Q749.6 61.2 749.9 61.2L749.9 61.2Q750.2 61.2 750.5 61.4Q750.7 61.7 750.7 62.0L750.7 62.0Q750.7 62.3 750.5 62.5Q750.2 62.7 749.9 62.7Z "/></g></svg>