<!-- Generated by readme-aura https://github.com/collectioneur/readme-aura -->
<svg width="800" height="200" viewBox="0 0 800 200" xmlns="http://www.w3.org/2000/svg"><defs><pattern id="satori_pattern_id_0" x="0" y="0" width="1" height="1" patternUnits="objectBoundingBox"><linearGradient id="satori_biid_0" x1="-0.08823529411764698" y1="0.3529411764705886" x2="1.088235294117647" y2="0.6470588235294114" spreadMethod="pad"><stop offset="0%" stop-color="#0d0d0d"/><stop offset="100%" stop-color="#111111"/></linearGradient><rect x="0" y="0" width="800" height="200" fill="url(#satori_biid_0)"/></pattern></defs><mask id="satori_om-id"><rect x="0" y="0" width="800" height="200" fill="#fff"/></mask><rect x="0" y="0" width="800" height="200" fill="url(#satori_pattern_id_0)"/><mask id="satori_om-id-0"><rect x="48" y="43" width="704" height="65" fill="#fff"/></mask><mask id="satori_om-id-0-0"><rect x="48" y="43" width="704" height="39" fill="#fff"/></mask><g  ><path fill="#ffffff" d="M56.4 74.3L56.4 74.3Q54.4 74.3 52.8 73.3Q51.1 72.2 50.2 70.2Q49.3 68.2 49.3 65.3L49.3 65.3Q49.3 62.3 50.2 60.3Q51.2 58.3 52.8 57.3Q54.4 56.3 56.4 56.3L56.4 56.3Q57.8 56.3 58.8 56.8Q59.8 57.3 60.4 58.0Q61.0 58.8 61.3 59.5L61.3 59.5L61.5 59.5L61.5 50.7L66.2 50.7L66.2 74L61.6 74L61.6 71.2L61.3 71.2Q61.0 71.9 60.4 72.6Q59.8 73.3 58.8 73.8Q57.8 74.3 56.4 74.3ZM57.8 70.5L57.8 70.5Q59.0 70.5 59.9 69.9Q60.7 69.2 61.1 68.0Q61.6 66.9 61.6 65.3L61.6 65.3Q61.6 63.7 61.1 62.5Q60.7 61.4 59.9 60.7Q59.0 60.1 57.8 60.1L57.8 60.1Q56.6 60.1 55.8 60.7Q54.9 61.4 54.5 62.6Q54.1 63.8 54.1 65.3L54.1 65.3Q54.1 66.8 54.5 68Q54.9 69.2 55.8 69.9Q56.6 70.5 57.8 70.5ZM74.5 74.3L74.5 74.3Q72.9 74.3 71.6 73.8Q70.3 73.2 69.5 72.0Q68.7 70.8 68.7 69.1L68.7 69.1Q68.7 67.7 69.3 66.7Q69.8 65.7 70.7 65.1Q71.7 64.5 72.9 64.2Q74.0 63.9 75.3 63.8L75.3 63.8Q76.8 63.6 77.8 63.5Q78.7 63.3 79.1 63.0Q79.6 62.8 79.6 62.2L79.6 62.2L79.6 62.1Q79.6 61.4 79.3 60.8Q78.9 60.3 78.3 60.1Q77.7 59.8 76.8 59.8L76.8 59.8Q75.9 59.8 75.3 60.1Q74.6 60.3 74.2 60.8Q73.7 61.2 73.5 61.8L73.5 61.8L69.2 61.1Q69.7 59.6 70.7 58.5Q71.8 57.4 73.3 56.9Q74.9 56.3 76.8 56.3L76.8 56.3Q78.3 56.3 79.6 56.6Q80.9 57.0 82.0 57.7Q83.0 58.4 83.6 59.5Q84.3 60.7 84.3 62.2L84.3 62.2L84.3 74L79.8 74L79.8 71.6L79.7 71.6Q79.2 72.4 78.5 73.0Q77.8 73.6 76.8 74.0Q75.8 74.3 74.5 74.3ZM75.9 71.0L75.9 71.0Q77.0 71.0 77.8 70.6Q78.7 70.2 79.1 69.4Q79.6 68.7 79.6 67.8L79.6 67.8L79.6 65.9Q79.4 66.0 79.0 66.1Q78.5 66.3 78.0 66.4Q77.5 66.5 77.0 66.5Q76.5 66.6 76.1 66.7L76.1 66.7Q75.3 66.8 74.6 67.1Q74.0 67.3 73.6 67.8Q73.2 68.3 73.2 69.0L73.2 69.0Q73.2 69.7 73.6 70.1Q73.9 70.6 74.5 70.8Q75.1 71.0 75.9 71.0ZM92.4 74L87.8 74L87.8 56.5L92.3 56.5L92.3 59.6L92.5 59.6Q93.0 58.0 94.1 57.1Q95.2 56.3 96.7 56.3L96.7 56.3Q97.0 56.3 97.5 56.3Q97.9 56.4 98.2 56.5L98.2 56.5L98.2 60.6Q97.9 60.5 97.3 60.5Q96.7 60.4 96.2 60.4L96.2 60.4Q95.1 60.4 94.3 60.9Q93.4 61.3 92.9 62.1Q92.4 63.0 92.4 64.1L92.4 64.1L92.4 74ZM105.0 74L100.3 74L100.3 50.7L105.0 50.7L105.0 63.3L105.2 63.3L111.0 56.5L116.4 56.5L109.8 64.1L116.7 74L111.2 74L106.3 66.9L105.0 68.4L105.0 74ZM123.0 74L118.3 74L118.3 56.5L123.0 56.5L123.0 74ZM120.7 54.3L120.7 54.3Q119.6 54.3 118.9 53.5Q118.1 52.8 118.1 51.8L118.1 51.8Q118.1 50.8 118.9 50.1Q119.6 49.4 120.7 49.4L120.7 49.4Q121.8 49.4 122.5 50.1Q123.3 50.8 123.3 51.8L123.3 51.8Q123.3 52.8 122.5 53.5Q121.8 54.3 120.7 54.3ZM131.2 74L126.5 74L126.5 56.5L131.2 56.5L131.2 74ZM128.9 54.3L128.9 54.3Q127.8 54.3 127.0 53.5Q126.3 52.8 126.3 51.8L126.3 51.8Q126.3 50.8 127.0 50.1Q127.8 49.4 128.9 49.4L128.9 49.4Q129.9 49.4 130.7 50.1Q131.4 50.8 131.4 51.8L131.4 51.8Q131.4 52.8 130.7 53.5Q129.9 54.3 128.9 54.3ZM140.8 56.5L144.4 56.5L144.4 60.1L140.8 60.1L140.8 74L136.1 74L136.1 60.1L133 60.1L133 56.5L136.1 56.5L136.1 55.2Q136.1 53.3 136.8 52.1Q137.6 50.9 138.8 50.2Q140.1 49.6 141.8 49.6L141.8 49.6Q142.9 49.6 143.8 49.8Q144.7 50.0 145.1 50.1L145.1 50.1L144.3 53.6Q144.0 53.6 143.6 53.5Q143.2 53.4 142.7 53.4L142.7 53.4Q141.6 53.4 141.2 53.9Q140.8 54.4 140.8 55.3L140.8 55.3L140.8 56.5ZM151.6 74L146.9 74L146.9 56.5L151.5 56.5L151.5 59.6L151.6 59.6Q152.1 58.0 153.3 57.1Q154.4 56.3 155.9 56.3L155.9 56.3Q156.2 56.3 156.6 56.3Q157.1 56.4 157.4 56.5L157.4 56.5L157.4 60.6Q157.1 60.5 156.5 60.5Q155.9 60.4 155.3 60.4L155.3 60.4Q154.3 60.4 153.4 60.9Q152.6 61.3 152.1 62.1Q151.6 63.0 151.6 64.1L151.6 64.1L151.6 74Z "/></g><mask id="satori_om-id-0-1"><rect x="48" y="90" width="704" height="18" fill="#fff"/></mask><g  ><path fill="#888888" d="M50.5 105L49.2 105L49.2 96.8L50.5 96.8L50.5 105ZM49.8 95.5L49.8 95.5Q49.5 95.5 49.2 95.2Q48.9 95.0 48.9 94.6L48.9 94.6Q48.9 94.2 49.2 94.0Q49.5 93.7 49.8 93.7L49.8 93.7Q50.2 93.7 50.5 94.0Q50.7 94.2 50.7 94.6L50.7 94.6Q50.7 95.0 50.5 95.2Q50.2 95.5 49.8 95.5ZM54.3 100.1L54.3 100.1L54.3 105L53.0 105L53.0 96.8L54.3 96.8L54.3 98.3Q54.6 97.6 55.2 97.2L55.2 97.2Q55.8 96.7 56.8 96.7L56.8 96.7Q57.6 96.7 58.2 97.0Q58.8 97.4 59.2 98.1Q59.5 98.8 59.5 99.8L59.5 99.8L59.5 105L58.2 105L58.2 99.9Q58.2 99.0 57.7 98.4Q57.2 97.9 56.4 97.9L56.4 97.9Q55.8 97.9 55.3 98.2Q54.9 98.4 54.6 98.9Q54.3 99.4 54.3 100.1ZM65.1 105.2L65.1 105.2Q64.1 105.2 63.3 104.7Q62.5 104.1 62.1 103.2Q61.7 102.2 61.7 100.9L61.7 100.9Q61.7 99.6 62.1 98.7Q62.5 97.7 63.3 97.2Q64.1 96.7 65.1 96.7L65.1 96.7Q65.9 96.7 66.4 97.0Q66.9 97.2 67.1 97.6Q67.4 97.9 67.5 98.1L67.5 98.1L67.6 98.1L67.6 94.1L68.9 94.1L68.9 105L67.6 105L67.6 103.7L67.5 103.7Q67.4 104.0 67.1 104.3Q66.8 104.6 66.4 104.9Q65.9 105.2 65.1 105.2ZM65.3 104.0L65.3 104.0Q66.1 104.0 66.6 103.6Q67.1 103.2 67.4 102.5Q67.6 101.8 67.6 100.9L67.6 100.9Q67.6 100.0 67.4 99.3Q67.1 98.6 66.6 98.3Q66.1 97.9 65.3 97.9L65.3 97.9Q64.5 97.9 64.0 98.3Q63.5 98.7 63.3 99.4Q63.0 100.1 63.0 100.9L63.0 100.9Q63.0 101.8 63.3 102.5Q63.5 103.2 64.0 103.6Q64.6 104.0 65.3 104.0ZM72.8 105L71.4 105L71.4 96.8L72.8 96.8L72.8 105ZM72.1 95.5L72.1 95.5Q71.7 95.5 71.5 95.2Q71.2 95.0 71.2 94.6L71.2 94.6Q71.2 94.2 71.5 94.0Q71.7 93.7 72.1 93.7L72.1 93.7Q72.5 93.7 72.8 94.0Q73.0 94.2 73.0 94.6L73.0 94.6Q73.0 95.0 72.8 95.2Q72.5 95.5 72.1 95.5ZM78.7 105.2L78.7 105.2Q77.5 105.2 76.7 104.6Q75.8 104.1 75.3 103.2Q74.9 102.2 74.9 101.0Q74.9 99.7 75.3 98.8Q75.8 97.8 76.6 97.3Q77.4 96.7 78.6 96.7L78.6 96.7Q79.2 96.7 79.8 96.9Q80.5 97.1 81.0 97.6Q81.5 98.1 81.8 98.9Q82.1 99.7 82.1 100.8L82.1 100.8L82.1 101.4L76.2 101.4Q76.2 102.1 76.5 102.7L76.5 102.7Q76.8 103.4 77.4 103.7Q78.0 104.0 78.7 104.0L78.7 104.0Q79.2 104.0 79.6 103.9Q80.0 103.7 80.3 103.4Q80.6 103.2 80.7 102.7L80.7 102.7L82.0 103.1Q81.8 103.7 81.3 104.2Q80.9 104.6 80.2 104.9Q79.6 105.2 78.7 105.2ZM76.2 100.2L76.2 100.2L80.8 100.2Q80.7 99.7 80.6 99.2L80.6 99.2Q80.3 98.6 79.8 98.2Q79.3 97.9 78.6 97.9Q77.8 97.9 77.3 98.2Q76.8 98.6 76.5 99.2L76.5 99.2Q76.3 99.7 76.2 100.2Z M91.7 105.2L91.7 105.2Q90.7 105.2 89.9 104.7Q89.1 104.1 88.7 103.2Q88.2 102.2 88.2 100.9L88.2 100.9Q88.2 99.6 88.7 98.7Q89.1 97.7 89.9 97.2Q90.7 96.7 91.7 96.7L91.7 96.7Q92.5 96.7 93.0 97.0Q93.4 97.2 93.7 97.6Q94.0 97.9 94.1 98.1L94.1 98.1L94.2 98.1L94.2 94.1L95.5 94.1L95.5 105L94.2 105L94.2 103.7L94.1 103.7Q94.0 104.0 93.7 104.3Q93.4 104.6 93.0 104.9Q92.5 105.2 91.7 105.2ZM91.9 104.0L91.9 104.0Q92.6 104.0 93.2 103.6Q93.7 103.2 93.9 102.5Q94.2 101.8 94.2 100.9L94.2 100.9Q94.2 100.0 93.9 99.3Q93.7 98.6 93.2 98.3Q92.7 97.9 91.9 97.9L91.9 97.9Q91.1 97.9 90.6 98.3Q90.1 98.7 89.8 99.4Q89.6 100.1 89.6 100.9L89.6 100.9Q89.6 101.8 89.8 102.5Q90.1 103.2 90.6 103.6Q91.1 104.0 91.9 104.0ZM101.5 105.2L101.5 105.2Q100.3 105.2 99.4 104.6Q98.6 104.1 98.1 103.2Q97.6 102.2 97.6 101.0Q97.6 99.7 98.1 98.8Q98.5 97.8 99.4 97.3Q100.2 96.7 101.3 96.7L101.3 96.7Q102.0 96.7 102.6 96.9Q103.2 97.1 103.7 97.6Q104.3 98.1 104.6 98.9Q104.9 99.7 104.9 100.8L104.9 100.8L104.9 101.4L99.0 101.4Q99.0 102.1 99.3 102.7L99.3 102.7Q99.6 103.4 100.2 103.7Q100.7 104.0 101.5 104.0L101.5 104.0Q102.0 104.0 102.3 103.9Q102.7 103.7 103.0 103.4Q103.3 103.2 103.5 102.7L103.5 102.7L104.7 103.1Q104.6 103.7 104.1 104.2Q103.6 104.6 103.0 104.9Q102.3 105.2 101.5 105.2ZM99.0 100.2L99.0 100.2L103.5 100.2Q103.5 99.7 103.3 99.2L103.3 99.2Q103.0 98.6 102.5 98.2Q102.0 97.9 101.3 97.9Q100.6 97.9 100.0 98.2Q99.5 98.6 99.2 99.2L99.2 99.2Q99.0 99.7 99.0 100.2ZM110.7 105L109.3 105L106.2 96.8L107.6 96.8L109.4 101.7Q109.7 102.4 109.9 103.2L109.9 103.2Q109.9 103.5 110.0 103.8L110.0 103.8Q110.1 103.5 110.2 103.2L110.2 103.2Q110.4 102.4 110.7 101.7L110.7 101.7L112.4 96.8L113.8 96.8L110.7 105Z M121.0 100.8L121.0 100.8Q120.6 100.8 120.3 100.5Q120.0 100.2 120.0 99.8L120.0 99.8Q120.0 99.4 120.3 99.1Q120.6 98.8 121.0 98.8L121.0 98.8Q121.4 98.8 121.7 99.1Q122.0 99.4 122.0 99.8L122.0 99.8Q122.0 100.2 121.7 100.5Q121.4 100.8 121.0 100.8Z M132.7 105L131.3 105L128.2 96.8L129.6 96.8L131.4 101.7Q131.7 102.4 131.9 103.2L131.9 103.2Q131.9 103.5 132.0 103.8L132.0 103.8Q132.1 103.5 132.2 103.2L132.2 103.2Q132.4 102.4 132.6 101.7L132.6 101.7L134.4 96.8L135.8 96.8L132.7 105ZM138.9 105L137.6 105L137.6 96.8L138.9 96.8L138.9 105ZM138.2 95.5L138.2 95.5Q137.9 95.5 137.6 95.2Q137.3 95.0 137.3 94.6L137.3 94.6Q137.3 94.2 137.6 94.0Q137.9 93.7 138.2 93.7L138.2 93.7Q138.6 93.7 138.9 94.0Q139.2 94.2 139.2 94.6L139.2 94.6Q139.2 95.0 138.9 95.2Q138.6 95.5 138.2 95.5ZM142.7 100.1L142.7 100.1L142.7 105L141.4 105L141.4 96.8L142.7 96.8L142.7 98.3Q143.0 97.6 143.6 97.2L143.6 97.2Q144.3 96.7 145.2 96.7L145.2 96.7Q146.0 96.7 146.6 97.0Q147.3 97.4 147.6 98.1Q148.0 98.8 148.0 99.8L148.0 99.8L148.0 105L146.6 105L146.6 99.9Q146.6 99.0 146.2 98.4Q145.7 97.9 144.8 97.9L144.8 97.9Q144.2 97.9 143.7 98.2Q143.3 98.4 143.0 98.9Q142.7 99.4 142.7 100.1ZM153.3 105.2L153.3 105.2Q152.4 105.2 151.8 104.9Q151.1 104.7 150.7 104.2Q150.3 103.7 150.1 103.0L150.1 103.0L151.4 102.7Q151.5 103.4 152.0 103.7Q152.5 104.0 153.2 104.0L153.2 104.0Q154.1 104.0 154.6 103.7Q155.1 103.3 155.1 102.8L155.1 102.8Q155.1 102.4 154.8 102.1Q154.5 101.8 153.9 101.7L153.9 101.7L152.6 101.3Q151.4 101.1 150.9 100.5Q150.4 100.0 150.4 99.1L150.4 99.1Q150.4 98.4 150.8 97.9Q151.2 97.3 151.8 97.0Q152.5 96.7 153.4 96.7L153.4 96.7Q154.2 96.7 154.8 97.0Q155.4 97.2 155.8 97.7Q156.2 98.1 156.3 98.7L156.3 98.7L155.1 99.0Q155.0 98.5 154.6 98.2Q154.2 97.8 153.4 97.8L153.4 97.8Q152.7 97.8 152.2 98.2Q151.7 98.5 151.7 99.0L151.7 99.0Q151.7 99.5 152.0 99.7Q152.4 100.0 153.1 100.2L153.1 100.2L154.3 100.5Q155.4 100.7 156.0 101.3Q156.5 101.9 156.5 102.7L156.5 102.7Q156.5 103.4 156.1 104.0Q155.7 104.5 154.9 104.9Q154.2 105.2 153.3 105.2Z M165.8 105.2L165.8 105.2Q165.0 105.2 164.3 104.9Q163.6 104.7 163.2 104.2Q162.8 103.7 162.6 103.0L162.6 103.0L163.9 102.7Q164.1 103.4 164.6 103.7Q165.0 104.0 165.8 104.0L165.8 104.0Q166.6 104.0 167.1 103.7Q167.7 103.3 167.7 102.8L167.7 102.8Q167.7 102.4 167.4 102.1Q167.1 101.8 166.5 101.7L166.5 101.7L165.1 101.3Q164.0 101.1 163.4 100.5Q162.9 100.0 162.9 99.1L162.9 99.1Q162.9 98.4 163.3 97.9Q163.7 97.3 164.4 97.0Q165.1 96.7 165.9 96.7L165.9 96.7Q166.8 96.7 167.4 97.0Q168.0 97.2 168.3 97.7Q168.7 98.1 168.9 98.7L168.9 98.7L167.7 99.0Q167.5 98.5 167.1 98.2Q166.7 97.8 165.9 97.8L165.9 97.8Q165.2 97.8 164.7 98.2Q164.2 98.5 164.2 99.0L164.2 99.0Q164.2 99.5 164.6 99.7Q164.9 100.0 165.6 100.2L165.6 100.2L166.8 100.5Q168.0 100.7 168.5 101.3Q169.0 101.9 169.0 102.7L169.0 102.7Q169.0 103.4 168.6 104.0Q168.2 104.5 167.5 104.9Q166.8 105.2 165.8 105.2ZM172.7 96.8L174.4 96.8L174.4 97.9L172.7 97.9L172.7 102.9Q172.7 103.4 172.9 103.7Q173.1 103.9 173.6 103.9L173.6 103.9Q173.8 103.9 174.0 103.9Q174.1 103.9 174.3 103.8L174.3 103.8L174.6 105.0Q174.4 105.0 174.1 105.1Q173.9 105.1 173.6 105.1L173.6 105.1Q172.5 105.1 171.9 104.5Q171.4 104.0 171.4 103.0L171.4 103.0L171.4 97.9L170.1 97.9L170.1 96.8L171.4 96.8L171.4 94.9L172.7 94.9L172.7 96.8ZM179.0 105.1L179.0 105.1Q178.2 105.1 177.6 104.8Q176.9 104.4 176.6 103.7Q176.2 103.0 176.2 102.0L176.2 102.0L176.2 96.8L177.6 96.8L177.6 101.9Q177.6 102.8 178.1 103.4Q178.6 103.9 179.4 103.9L179.4 103.9Q180.0 103.9 180.5 103.7Q180.9 103.4 181.2 102.9Q181.5 102.4 181.5 101.7L181.5 101.7L181.5 96.8L182.8 96.8L182.8 105L181.5 105L181.5 103.5Q181.2 104.3 180.6 104.6L180.6 104.6Q179.9 105.1 179.0 105.1ZM188.4 105.2L188.4 105.2Q187.4 105.2 186.6 104.7Q185.8 104.1 185.4 103.2Q184.9 102.2 184.9 100.9L184.9 100.9Q184.9 99.6 185.4 98.7Q185.8 97.7 186.6 97.2Q187.4 96.7 188.4 96.7L188.4 96.7Q189.2 96.7 189.7 97.0Q190.1 97.2 190.4 97.6Q190.6 97.9 190.8 98.1L190.8 98.1L190.9 98.1L190.9 94.1L192.2 94.1L192.2 105L190.9 105L190.9 103.7L190.8 103.7Q190.6 104.0 190.4 104.3Q190.1 104.6 189.6 104.9Q189.2 105.2 188.4 105.2ZM188.6 104.0L188.6 104.0Q189.3 104.0 189.8 103.6Q190.3 103.2 190.6 102.5Q190.9 101.8 190.9 100.9L190.9 100.9Q190.9 100.0 190.6 99.3Q190.4 98.6 189.8 98.3Q189.3 97.9 188.6 97.9L188.6 97.9Q187.8 97.9 187.3 98.3Q186.8 98.7 186.5 99.4Q186.3 100.1 186.3 100.9L186.3 100.9Q186.3 101.8 186.5 102.5Q186.8 103.2 187.3 103.6Q187.8 104.0 188.6 104.0ZM196.0 105L194.7 105L194.7 96.8L196.0 96.8L196.0 105ZM195.4 95.5L195.4 95.5Q195.0 95.5 194.7 95.2Q194.4 95.0 194.4 94.6L194.4 94.6Q194.4 94.2 194.7 94.0Q195.0 93.7 195.4 93.7L195.4 93.7Q195.7 93.7 196.0 94.0Q196.3 94.2 196.3 94.6L196.3 94.6Q196.3 95.0 196.0 95.2Q195.7 95.5 195.4 95.5ZM201.9 105.2L201.9 105.2Q200.7 105.2 199.9 104.6Q199.1 104.1 198.6 103.2Q198.1 102.2 198.1 101.0L198.1 101.0Q198.1 99.7 198.6 98.7Q199.1 97.8 199.9 97.2Q200.7 96.7 201.9 96.7L201.9 96.7Q203.0 96.7 203.8 97.2Q204.7 97.8 205.1 98.7Q205.6 99.7 205.6 101.0L205.6 101.0Q205.6 102.2 205.1 103.2Q204.7 104.1 203.8 104.6Q203.0 105.2 201.9 105.2ZM201.9 104.0L201.9 104.0Q202.7 104.0 203.2 103.6Q203.8 103.1 204.0 102.5Q204.3 101.8 204.3 101.0L204.3 101.0Q204.3 100.1 204.0 99.4Q203.8 98.7 203.2 98.3Q202.7 97.9 201.9 97.9L201.9 97.9Q201.0 97.9 200.5 98.3Q200.0 98.7 199.7 99.4Q199.5 100.1 199.5 101.0L199.5 101.0Q199.5 101.8 199.7 102.5Q200.0 103.1 200.5 103.6Q201.0 104.0 201.9 104.0Z M213.1 100.8L213.1 100.8Q212.7 100.8 212.4 100.5Q212.2 100.2 212.2 99.8L212.2 99.8Q212.2 99.4 212.4 99.1Q212.7 98.8 213.1 98.8L213.1 98.8Q213.6 98.8 213.8 99.1Q214.1 99.4 214.1 99.8L214.1 99.8Q214.1 100.2 213.8 100.5Q213.6 100.8 213.1 100.8Z M223.0 96.8L224.9 96.8L224.9 97.9L223.0 97.9L223.0 105L221.7 105L221.7 97.9L220.1 97.9L220.1 96.8L221.7 96.8L221.7 95.7Q221.7 95.0 222.0 94.5Q222.3 94.1 222.9 93.8Q223.4 93.6 224.0 93.6L224.0 93.6Q224.5 93.6 224.8 93.7Q225.1 93.7 225.2 93.8L225.2 93.8L224.9 94.9Q224.8 94.9 224.6 94.8Q224.4 94.8 224.2 94.8L224.2 94.8Q223.6 94.8 223.3 95.1Q223.0 95.4 223.0 96.0L223.0 96.0L223.0 96.8ZM228.1 105L226.8 105L226.8 96.8L228.1 96.8L228.1 98.1L228.2 98.1Q228.4 97.4 229.0 97.1Q229.6 96.7 230.3 96.7L230.3 96.7Q230.5 96.7 230.7 96.7Q230.9 96.7 231.0 96.7L231.0 96.7L231.0 98.0Q230.9 98.0 230.7 98.0Q230.5 98.0 230.2 98.0L230.2 98.0Q229.6 98.0 229.1 98.2Q228.7 98.5 228.4 98.9Q228.1 99.3 228.1 99.9L228.1 99.9L228.1 105ZM235.0 105.2L235.0 105.2Q234.2 105.2 233.6 104.9Q232.9 104.6 232.6 104.0Q232.2 103.5 232.2 102.7L232.2 102.7Q232.2 102.0 232.5 101.5Q232.7 101.1 233.2 100.8Q233.7 100.6 234.2 100.5Q234.8 100.3 235.4 100.3L235.4 100.3Q236.1 100.2 236.6 100.1Q237.0 100.1 237.2 99.9Q237.5 99.8 237.5 99.5L237.5 99.5L237.5 99.5Q237.5 99.0 237.3 98.6Q237.1 98.2 236.7 98.1Q236.3 97.9 235.8 97.9L235.8 97.9Q235.2 97.9 234.7 98.0Q234.3 98.2 234.1 98.5Q233.8 98.8 233.7 99.1L233.7 99.1L232.4 98.6Q232.7 97.9 233.3 97.5Q233.8 97.1 234.4 96.9Q235.1 96.7 235.7 96.7L235.7 96.7Q236.1 96.7 236.7 96.8Q237.2 96.9 237.7 97.2Q238.1 97.5 238.5 98.1Q238.8 98.6 238.8 99.6L238.8 99.6L238.8 105L237.5 105L237.5 103.9L237.4 103.9Q237.3 104.2 237.0 104.5Q236.6 104.8 236.2 105.0Q235.7 105.2 235.0 105.2ZM235.2 104.0L235.2 104.0Q235.9 104.0 236.4 103.7Q236.9 103.5 237.2 103.0Q237.5 102.5 237.5 102.0L237.5 102.0L237.5 100.9Q237.4 101.0 237.1 101.1Q236.8 101.2 236.5 101.2Q236.1 101.3 235.8 101.3Q235.5 101.4 235.3 101.4L235.3 101.4Q234.8 101.4 234.4 101.6Q234.0 101.7 233.8 102.0Q233.5 102.3 233.5 102.7L233.5 102.7Q233.5 103.2 233.7 103.4Q233.9 103.7 234.3 103.9Q234.7 104.0 235.2 104.0ZM242.6 100.1L242.6 100.1L242.6 105L241.3 105L241.3 96.8L242.6 96.8L242.6 98.3Q242.9 97.6 243.5 97.2L243.5 97.2Q244.1 96.7 245.1 96.7L245.1 96.7Q245.9 96.7 246.5 97.0Q247.2 97.4 247.5 98.1Q247.8 98.8 247.8 99.8L247.8 99.8L247.8 105L246.5 105L246.5 99.9Q246.5 99.0 246.0 98.4Q245.5 97.9 244.7 97.9L244.7 97.9Q244.1 97.9 243.6 98.2Q243.2 98.4 242.9 98.9Q242.6 99.4 242.6 100.1ZM253.7 105.2L253.7 105.2Q252.6 105.2 251.7 104.6Q250.9 104.1 250.4 103.2Q250.0 102.2 250.0 101.0L250.0 101.0Q250.0 99.7 250.4 98.7Q250.9 97.8 251.7 97.2Q252.6 96.7 253.7 96.7L253.7 96.7Q254.3 96.7 254.8 96.9Q255.3 97.0 255.8 97.3Q256.2 97.6 256.5 98.0Q256.8 98.4 257.0 99.0L257.0 99.0L255.7 99.3Q255.7 99.0 255.5 98.8Q255.3 98.5 255.0 98.3Q254.8 98.1 254.4 98.0Q254.1 97.9 253.7 97.9L253.7 97.9Q252.9 97.9 252.3 98.3Q251.8 98.7 251.6 99.4Q251.3 100.1 251.3 101.0L251.3 101.0Q251.3 101.8 251.6 102.5Q251.8 103.1 252.3 103.6Q252.9 104.0 253.7 104.0L253.7 104.0Q254.1 104.0 254.4 103.9Q254.8 103.8 255.1 103.6Q255.3 103.4 255.5 103.1Q255.7 102.8 255.8 102.5L255.8 102.5L257.0 102.8Q256.9 103.4 256.6 103.8Q256.2 104.3 255.8 104.6Q255.4 104.9 254.8 105.0Q254.3 105.2 253.7 105.2ZM262.6 105.2L262.6 105.2Q261.4 105.2 260.5 104.6Q259.7 104.1 259.2 103.2Q258.7 102.2 258.7 101.0Q258.7 99.7 259.2 98.8Q259.6 97.8 260.5 97.3Q261.3 96.7 262.4 96.7L262.4 96.7Q263.1 96.7 263.7 96.9Q264.3 97.1 264.9 97.6Q265.4 98.1 265.7 98.9Q266.0 99.7 266.0 100.8L266.0 100.8L266.0 101.4L260.1 101.4Q260.1 102.1 260.4 102.7L260.4 102.7Q260.7 103.4 261.3 103.7Q261.8 104.0 262.6 104.0L262.6 104.0Q263.1 104.0 263.5 103.9Q263.9 103.7 264.1 103.4Q264.4 103.2 264.6 102.7L264.6 102.7L265.9 103.1Q265.7 103.7 265.2 104.2Q264.8 104.6 264.1 104.9Q263.4 105.2 262.6 105.2ZM260.1 100.2L260.1 100.2L264.6 100.2Q264.6 99.7 264.4 99.2L264.4 99.2Q264.2 98.6 263.7 98.2Q263.2 97.9 262.4 97.9Q261.7 97.9 261.2 98.2Q260.6 98.6 260.3 99.2L260.3 99.2Q260.1 99.7 260.1 100.2Z "/></g><mask id="satori_om-id-1"><rect x="48" y="132" width="704" height="25" fill="#fff"/></mask><defs><clipPath id="satori_bc-id-1-0"><path x="48" y="132" width="43" height="25" d="M54,132 h31 a6,6 0 0 1 6,6 v13 a6,6 0 0 1 -6,6 h-31 a6,6 0 0 1 -6,-6 v-13 a6,6 0 0 1 6,-6"/></clipPath></defs><mask id="satori_om-id-1-0"><rect x="49" y="133" width="41" height="23" fill="#fff"/><path width="43" height="25" fill="none" stroke="#000" stroke-width="2" d="M49.757,133.757 A6,6 0 0 1 54,132 h31 a6,6 0 0 1 6,6 v13 a6,6 0 0 1 -6,6 h-31 a6,6 0 0 1 -6,-6 v-13 A6,6 0 0 1 49.757,133.757"/></mask><path x="48" y="132" width="43" height="25" fill="#1a1a1a" d="M54,132 h31 a6,6 0 0 1 6,6 v13 a6,6 0 0 1 -6,6 h-31 a6,6 0 0 1 -6,-6 v-13 a6,6 0 0 1 6,-6"/><path width="43" height="25" clip-path="url(#satori_bc-id-1-0)" fill="none" stroke="#2a2a2a" stroke-width="2" d="M49.757,133.757 A6,6 0 0 1 54,132 h31 a6,6 0 0 1 6,6 v13 a6,6 0 0 1 -6,6 h-31 a6,6 0 0 1 -6,-6 v-13 A6,6 0 0 1 49.757,133.757"/><g  ><path fill="#aaaaaa" d="M65.6 149.1L65.6 149.1Q64.5 149.1 63.6 148.6Q62.7 148.0 62.2 147.0Q61.7 146.0 61.7 144.6L61.7 144.6Q61.7 143.3 62.2 142.2Q62.7 141.2 63.6 140.7Q64.5 140.2 65.6 140.2L65.6 140.2Q66.3 140.2 66.8 140.3Q67.4 140.5 67.9 140.9Q68.4 141.3 68.7 141.8Q69.0 142.3 69.1 143.0L69.1 143.0L68.0 143.0Q67.9 142.6 67.7 142.2Q67.5 141.9 67.1 141.7Q66.8 141.4 66.4 141.3Q66.0 141.2 65.6 141.2L65.6 141.2Q64.8 141.2 64.2 141.6Q63.5 142.0 63.2 142.8Q62.8 143.5 62.8 144.6L62.8 144.6Q62.8 145.8 63.2 146.5Q63.5 147.3 64.2 147.7Q64.8 148.1 65.6 148.1L65.6 148.1Q66.0 148.1 66.4 148.0Q66.8 147.8 67.1 147.6Q67.5 147.4 67.7 147.0Q67.9 146.7 68.0 146.3L68.0 146.3L69.1 146.3Q69.0 146.9 68.7 147.4Q68.4 148.0 67.9 148.3Q67.4 148.7 66.8 148.9Q66.3 149.1 65.6 149.1ZM74.8 149L73.9 149L74.3 146.6L72.2 146.6L71.8 149L70.9 149L71.3 146.6L70.0 146.6L70.1 145.7L71.4 145.7L71.8 143.6L70.5 143.6L70.6 142.7L71.9 142.7L72.3 140.3L73.2 140.3L72.8 142.7L75.0 142.7L75.4 140.3L76.3 140.3L75.9 142.7L77.2 142.7L77.0 143.6L75.7 143.6L75.4 145.7L76.7 145.7L76.5 146.6L75.2 146.6L74.8 149ZM72.6 143.6L72.3 145.7L74.5 145.7L74.8 143.6L72.6 143.6Z "/></g><defs><clipPath id="satori_bc-id-1-1"><path x="99" y="132" width="77" height="25" d="M105,132 h65 a6,6 0 0 1 6,6 v13 a6,6 0 0 1 -6,6 h-65 a6,6 0 0 1 -6,-6 v-13 a6,6 0 0 1 6,-6"/></clipPath></defs><mask id="satori_om-id-1-1"><rect x="100" y="133" width="75" height="23" fill="#fff"/><path width="77" height="25" fill="none" stroke="#000" stroke-width="2" d="M100.757,133.757 A6,6 0 0 1 105,132 h65 a6,6 0 0 1 6,6 v13 a6,6 0 0 1 -6,6 h-65 a6,6 0 0 1 -6,-6 v-13 A6,6 0 0 1 100.757,133.757"/></mask><path x="99" y="132" width="77" height="25" fill="#1a1a1a" d="M105,132 h65 a6,6 0 0 1 6,6 v13 a6,6 0 0 1 -6,6 h-65 a6,6 0 0 1 -6,-6 v-13 a6,6 0 0 1 6,-6"/><path width="77" height="25" clip-path="url(#satori_bc-id-1-1)" fill="none" stroke="#2a2a2a" stroke-width="2" d="M100.757,133.757 A6,6 0 0 1 105,132 h65 a6,6 0 0 1 6,6 v13 a6,6 0 0 1 -6,6 h-65 a6,6 0 0 1 -6,-6 v-13 A6,6 0 0 1 100.757,133.757"/><g  ><path fill="#aaaaaa" d="M115.8 149.2L115.8 149.2Q114.9 149.2 114.2 148.8Q113.5 148.5 113.1 148.0Q112.7 147.4 112.7 146.7L112.7 146.7L113.8 146.7Q113.9 147.2 114.2 147.5Q114.4 147.8 114.9 148.0Q115.3 148.2 115.8 148.2L115.8 148.2Q116.4 148.2 116.9 148.0Q117.4 147.8 117.7 147.4Q117.9 147.1 117.9 146.6L117.9 146.6Q117.9 146.2 117.7 145.9Q117.5 145.7 117.1 145.5Q116.7 145.3 116.2 145.2L116.2 145.2L115.2 144.9Q114.1 144.6 113.5 144.0Q112.9 143.5 112.9 142.6L112.9 142.6Q112.9 141.9 113.3 141.3Q113.7 140.8 114.4 140.5Q115.1 140.2 115.9 140.2L115.9 140.2Q116.8 140.2 117.4 140.5Q118.1 140.8 118.5 141.3Q118.9 141.8 118.9 142.5L118.9 142.5L117.8 142.5Q117.7 141.8 117.2 141.5Q116.7 141.1 115.9 141.1L115.9 141.1Q115.3 141.1 114.9 141.3Q114.5 141.5 114.2 141.8Q114.0 142.1 114.0 142.6L114.0 142.6Q114.0 143.0 114.3 143.3Q114.6 143.6 115.0 143.7Q115.4 143.9 115.7 144.0L115.7 144.0L116.5 144.2Q116.9 144.3 117.3 144.5Q117.7 144.6 118.1 144.9Q118.5 145.2 118.8 145.6Q119.0 146.0 119.0 146.6L119.0 146.6Q119.0 147.3 118.6 147.9Q118.3 148.5 117.6 148.8Q116.9 149.2 115.8 149.2ZM123.6 149L122.5 149L120.0 142.4L121.2 142.4L122.6 146.3Q122.8 146.9 122.9 147.5L122.9 147.5Q123.0 147.8 123.1 148.0L123.1 148.0Q123.1 147.8 123.2 147.5L123.2 147.5Q123.4 146.9 123.6 146.3L123.6 146.3L125.0 142.4L126.1 142.4L123.6 149ZM130.1 149.1L130.1 149.1Q129.2 149.1 128.5 148.7Q127.8 148.3 127.4 147.5Q127.1 146.8 127.1 145.8Q127.1 144.8 127.4 144.0Q127.8 143.2 128.4 142.8Q129.1 142.4 130 142.4L130 142.4Q130.5 142.4 131.0 142.5Q131.5 142.7 131.9 143.1Q132.4 143.5 132.6 144.1Q132.9 144.7 132.9 145.6L132.9 145.6L132.9 146.1L128.1 146.1Q128.1 146.7 128.4 147.2L128.4 147.2Q128.6 147.7 129.1 147.9Q129.5 148.2 130.1 148.2L130.1 148.2Q130.5 148.2 130.8 148.1Q131.1 148.0 131.4 147.8Q131.6 147.5 131.7 147.2L131.7 147.2L132.7 147.5Q132.6 148.0 132.2 148.3Q131.9 148.7 131.3 148.9Q130.8 149.1 130.1 149.1ZM128.1 145.2L128.1 145.2L131.8 145.2Q131.7 144.7 131.6 144.4L131.6 144.4Q131.4 143.9 131.0 143.6Q130.6 143.3 130 143.3Q129.4 143.3 129.0 143.6Q128.6 143.9 128.3 144.3L128.3 144.3Q128.2 144.7 128.1 145.2ZM134.4 140.3L135.4 140.3L135.4 149L134.4 149L134.4 140.3ZM138.5 142.4L139.8 142.4L139.8 143.4L138.5 143.4L138.5 147.3Q138.5 147.7 138.7 147.9Q138.9 148.1 139.3 148.1L139.3 148.1Q139.4 148.1 139.5 148.1Q139.7 148.1 139.8 148.1L139.8 148.1L140.0 149.0Q139.9 149.0 139.7 149.1Q139.5 149.1 139.2 149.1L139.2 149.1Q138.4 149.1 137.9 148.6Q137.4 148.2 137.4 147.4L137.4 147.4L137.4 143.4L136.5 143.4L136.5 142.4L137.4 142.4L137.4 140.9L138.5 140.9L138.5 142.4ZM144.0 149.1L144.0 149.1Q143.0 149.1 142.3 148.7Q141.6 148.3 141.3 147.5Q140.9 146.8 140.9 145.8Q140.9 144.8 141.2 144.0Q141.6 143.2 142.3 142.8Q142.9 142.4 143.8 142.4L143.8 142.4Q144.3 142.4 144.9 142.5Q145.4 142.7 145.8 143.1Q146.2 143.5 146.4 144.1Q146.7 144.7 146.7 145.6L146.7 145.6L146.7 146.1L141.9 146.1Q142.0 146.7 142.2 147.2L142.2 147.2Q142.5 147.7 142.9 147.9Q143.4 148.2 144.0 148.2L144.0 148.2Q144.3 148.2 144.7 148.1Q145.0 148.0 145.2 147.8Q145.4 147.5 145.6 147.2L145.6 147.2L146.6 147.5Q146.4 148.0 146.1 148.3Q145.7 148.7 145.2 148.9Q144.6 149.1 144.0 149.1ZM142.0 145.2L142.0 145.2L145.6 145.2Q145.6 144.7 145.4 144.4L145.4 144.4Q145.2 143.9 144.8 143.6Q144.4 143.3 143.8 143.3Q143.2 143.3 142.8 143.6Q142.4 143.9 142.2 144.3L142.2 144.3Q142.0 144.7 142.0 145.2ZM149.4 149L148.3 149L148.3 140.3L149.4 140.3L149.4 143.3L149.4 144.9Q149.6 144.7 149.7 144.5L149.7 144.5Q150.0 144.2 150.3 143.8Q150.6 143.4 150.9 143.1L150.9 143.1L153.5 140.3L155.0 140.3L151.5 144.0L155.0 149L153.7 149L150.7 144.8L149.4 146.1L149.4 149ZM157.3 149L156.3 149L156.3 142.4L157.3 142.4L157.3 149ZM156.8 141.4L156.8 141.4Q156.5 141.4 156.3 141.2Q156.1 141.0 156.1 140.7L156.1 140.7Q156.1 140.4 156.3 140.2Q156.5 140.0 156.8 140.0L156.8 140.0Q157.1 140.0 157.3 140.2Q157.5 140.4 157.5 140.7L157.5 140.7Q157.5 141.0 157.3 141.2Q157.1 141.4 156.8 141.4ZM160.4 142.4L161.7 142.4L161.7 143.4L160.4 143.4L160.4 147.3Q160.4 147.7 160.6 147.9Q160.8 148.1 161.2 148.1L161.2 148.1Q161.3 148.1 161.4 148.1Q161.6 148.1 161.7 148.1L161.7 148.1L161.9 149.0Q161.8 149.0 161.5 149.1Q161.3 149.1 161.1 149.1L161.1 149.1Q160.3 149.1 159.8 148.6Q159.3 148.2 159.3 147.4L159.3 147.4L159.3 143.4L158.4 143.4L158.4 142.4L159.3 142.4L159.3 140.9L160.4 140.9L160.4 142.4Z "/></g><defs><clipPath id="satori_bc-id-1-2"><path x="184" y="132" width="56" height="25" d="M190,132 h44 a6,6 0 0 1 6,6 v13 a6,6 0 0 1 -6,6 h-44 a6,6 0 0 1 -6,-6 v-13 a6,6 0 0 1 6,-6"/></clipPath></defs><mask id="satori_om-id-1-2"><rect x="185" y="133" width="54" height="23" fill="#fff"/><path width="56" height="25" fill="none" stroke="#000" stroke-width="2" d="M185.757,133.757 A6,6 0 0 1 190,132 h44 a6,6 0 0 1 6,6 v13 a6,6 0 0 1 -6,6 h-44 a6,6 0 0 1 -6,-6 v-13 A6,6 0 0 1 185.757,133.757"/></mask><path x="184" y="132" width="56" height="25" fill="#1a1a1a" d="M190,132 h44 a6,6 0 0 1 6,6 v13 a6,6 0 0 1 -6,6 h-44 a6,6 0 0 1 -6,-6 v-13 a6,6 0 0 1 6,-6"/><path width="56" height="25" clip-path="url(#satori_bc-id-1-2)" fill="none" stroke="#2a2a2a" stroke-width="2" d="M185.757,133.757 A6,6 0 0 1 190,132 h44 a6,6 0 0 1 6,6 v13 a6,6 0 0 1 -6,6 h-44 a6,6 0 0 1 -6,-6 v-13 A6,6 0 0 1 185.757,133.757"/><g  ><path fill="#aaaaaa" d="M200.3 141.3L197.6 141.3L197.6 140.3L204.2 140.3L204.2 141.3L201.4 141.3L201.4 149L200.3 149L200.3 141.3ZM207.5 149.2L207.5 149.2Q206.9 149.2 206.4 148.9Q205.9 148.7 205.6 148.2Q205.3 147.8 205.3 147.1L205.3 147.1Q205.3 146.6 205.5 146.2Q205.7 145.9 206.1 145.7Q206.5 145.5 206.9 145.4Q207.4 145.3 207.8 145.2L207.8 145.2Q208.4 145.1 208.8 145.1Q209.1 145.1 209.3 145.0Q209.5 144.9 209.5 144.6L209.5 144.6L209.5 144.6Q209.5 144.2 209.4 143.9Q209.2 143.6 208.9 143.4Q208.6 143.3 208.1 143.3L208.1 143.3Q207.7 143.3 207.3 143.4Q207.0 143.6 206.8 143.8Q206.6 144.0 206.5 144.3L206.5 144.3L205.5 143.9Q205.7 143.3 206.1 143.0Q206.6 142.6 207.1 142.5Q207.6 142.4 208.1 142.4L208.1 142.4Q208.4 142.4 208.9 142.4Q209.3 142.5 209.7 142.8Q210.0 143.0 210.3 143.5Q210.6 143.9 210.6 144.7L210.6 144.7L210.6 149L209.5 149L209.5 148.1L209.5 148.1Q209.3 148.3 209.1 148.6Q208.8 148.8 208.5 149.0Q208.1 149.2 207.5 149.2ZM207.7 148.2L207.7 148.2Q208.3 148.2 208.7 148.0Q209.1 147.8 209.3 147.4Q209.5 147.0 209.5 146.6L209.5 146.6L209.5 145.7Q209.4 145.8 209.2 145.9Q209.0 145.9 208.7 146.0Q208.4 146.0 208.2 146.0Q207.9 146.1 207.8 146.1L207.8 146.1Q207.4 146.1 207.1 146.3Q206.7 146.4 206.5 146.6Q206.3 146.8 206.3 147.2L206.3 147.2Q206.3 147.5 206.5 147.8Q206.7 148.0 207.0 148.1Q207.3 148.2 207.7 148.2ZM214.6 149.1L214.6 149.1Q214.0 149.1 213.5 148.8Q213.0 148.5 212.7 148.0Q212.4 147.4 212.4 146.6L212.4 146.6L212.4 142.4L213.5 142.4L213.5 146.5Q213.5 147.3 213.9 147.7Q214.3 148.1 214.9 148.1L214.9 148.1Q215.4 148.1 215.8 147.9Q216.2 147.7 216.4 147.3Q216.6 146.9 216.6 146.4L216.6 146.4L216.6 142.4L217.7 142.4L217.7 149L216.6 149L216.6 147.8Q216.4 148.4 215.9 148.7L215.9 148.7Q215.4 149.1 214.6 149.1ZM220.6 149L219.5 149L219.5 142.4L220.5 142.4L220.5 143.5L220.6 143.5Q220.8 143.0 221.2 142.7Q221.7 142.4 222.3 142.4L222.3 142.4Q222.4 142.4 222.6 142.4Q222.7 142.4 222.8 142.4L222.8 142.4L222.8 143.4Q222.8 143.4 222.6 143.4Q222.4 143.4 222.2 143.4L222.2 143.4Q221.7 143.4 221.4 143.6Q221.0 143.8 220.8 144.1Q220.6 144.5 220.6 144.9L220.6 144.9L220.6 149ZM225.1 149L224.0 149L224.0 142.4L225.1 142.4L225.1 149ZM224.6 141.4L224.6 141.4Q224.3 141.4 224.0 141.2Q223.8 141.0 223.8 140.7L223.8 140.7Q223.8 140.4 224.0 140.2Q224.3 140.0 224.6 140.0L224.6 140.0Q224.9 140.0 225.1 140.2Q225.3 140.4 225.3 140.7L225.3 140.7Q225.3 141.0 225.1 141.2Q224.9 141.4 224.6 141.4Z "/></g><defs><clipPath id="satori_bc-id-1-3"><path x="248" y="132" width="52" height="25" d="M254,132 h40 a6,6 0 0 1 6,6 v13 a6,6 0 0 1 -6,6 h-40 a6,6 0 0 1 -6,-6 v-13 a6,6 0 0 1 6,-6"/></clipPath></defs><mask id="satori_om-id-1-3"><rect x="249" y="133" width="50" height="23" fill="#fff"/><path width="52" height="25" fill="none" stroke="#000" stroke-width="2" d="M249.757,133.757 A6,6 0 0 1 254,132 h40 a6,6 0 0 1 6,6 v13 a6,6 0 0 1 -6,6 h-40 a6,6 0 0 1 -6,-6 v-13 A6,6 0 0 1 249.757,133.757"/></mask><path x="248" y="132" width="52" height="25" fill="#1a1a1a" d="M254,132 h40 a6,6 0 0 1 6,6 v13 a6,6 0 0 1 -6,6 h-40 a6,6 0 0 1 -6,-6 v-13 a6,6 0 0 1 6,-6"/><path width="52" height="25" clip-path="url(#satori_bc-id-1-3)" fill="none" stroke="#2a2a2a" stroke-width="2" d="M249.757,133.757 A6,6 0 0 1 254,132 h40 a6,6 0 0 1 6,6 v13 a6,6 0 0 1 -6,6 h-40 a6,6 0 0 1 -6,-6 v-13 A6,6 0 0 1 249.757,133.757"/><g  ><path fill="#aaaaaa" d="M263.2 149L262.1 149L262.1 140.3L265.0 140.3Q266.1 140.3 266.7 140.6Q267.4 141.0 267.7 141.6Q268.0 142.2 268.0 143.0Q268.0 143.7 267.7 144.3Q267.4 144.9 266.7 145.3L266.7 145.3Q266.6 145.4 266.4 145.4L266.4 145.4L268.4 149L267.1 149L265.3 145.6Q265.2 145.6 265.0 145.6L265.0 145.6L263.2 145.6L263.2 149ZM263.2 141.2L263.2 144.6L265.0 144.6Q265.7 144.6 266.1 144.4Q266.5 144.2 266.7 143.8Q266.9 143.5 266.9 143.0L266.9 143.0Q266.9 142.4 266.7 142.1Q266.5 141.7 266.1 141.5Q265.7 141.2 265.0 141.2L265.0 141.2L263.2 141.2ZM271.9 149.1L271.9 149.1Q271.2 149.1 270.7 148.8Q270.2 148.5 269.9 148.0Q269.6 147.4 269.6 146.6L269.6 146.6L269.6 142.4L270.7 142.4L270.7 146.5Q270.7 147.3 271.1 147.7Q271.5 148.1 272.2 148.1L272.2 148.1Q272.7 148.1 273.0 147.9Q273.4 147.7 273.6 147.3Q273.8 146.9 273.8 146.4L273.8 146.4L273.8 142.4L274.9 142.4L274.9 149L273.9 149L273.9 147.8Q273.6 148.4 273.2 148.7L273.2 148.7Q272.6 149.1 271.9 149.1ZM279.0 149.1L279.0 149.1Q278.3 149.1 277.8 148.9Q277.2 148.7 276.9 148.4Q276.6 148.0 276.5 147.4L276.5 147.4L277.5 147.2Q277.6 147.7 278.0 148.0Q278.4 148.2 279.0 148.2L279.0 148.2Q279.6 148.2 280.1 147.9Q280.5 147.6 280.5 147.2L280.5 147.2Q280.5 146.9 280.2 146.7Q280.0 146.4 279.5 146.3L279.5 146.3L278.4 146.1Q277.5 145.9 277.1 145.4Q276.7 145.0 276.7 144.3L276.7 144.3Q276.7 143.7 277.0 143.3Q277.3 142.9 277.8 142.6Q278.4 142.4 279.1 142.4L279.1 142.4Q279.8 142.4 280.2 142.6Q280.7 142.8 281.0 143.1Q281.3 143.5 281.4 143.9L281.4 143.9L280.5 144.2Q280.3 143.8 280.0 143.6Q279.7 143.3 279.1 143.3L279.1 143.3Q278.5 143.3 278.1 143.5Q277.7 143.8 277.7 144.2L277.7 144.2Q277.7 144.6 278.0 144.8Q278.2 145.0 278.8 145.2L278.8 145.2L279.8 145.4Q280.7 145.6 281.1 146.0Q281.6 146.5 281.6 147.2L281.6 147.2Q281.6 147.7 281.2 148.2Q280.9 148.6 280.3 148.9Q279.7 149.1 279.0 149.1ZM284.3 142.4L285.7 142.4L285.7 143.4L284.3 143.4L284.3 147.3Q284.3 147.7 284.5 147.9Q284.7 148.1 285.1 148.1L285.1 148.1Q285.2 148.1 285.3 148.1Q285.5 148.1 285.6 148.1L285.6 148.1L285.8 149.0Q285.7 149.0 285.5 149.1Q285.3 149.1 285.1 149.1L285.1 149.1Q284.2 149.1 283.7 148.6Q283.3 148.2 283.3 147.4L283.3 147.4L283.3 143.4L282.3 143.4L282.3 142.4L283.3 142.4L283.3 140.9L284.3 140.9L284.3 142.4Z "/></g><defs><clipPath id="satori_bc-id-1-4"><path x="308" y="132" width="89" height="25" d="M314,132 h77 a6,6 0 0 1 6,6 v13 a6,6 0 0 1 -6,6 h-77 a6,6 0 0 1 -6,-6 v-13 a6,6 0 0 1 6,-6"/></clipPath></defs><mask id="satori_om-id-1-4"><rect x="309" y="133" width="87" height="23" fill="#fff"/><path width="89" height="25" fill="none" stroke="#000" stroke-width="2" d="M309.757,133.757 A6,6 0 0 1 314,132 h77 a6,6 0 0 1 6,6 v13 a6,6 0 0 1 -6,6 h-77 a6,6 0 0 1 -6,-6 v-13 A6,6 0 0 1 309.757,133.757"/></mask><path x="308" y="132" width="89" height="25" fill="#1a1a1a" d="M314,132 h77 a6,6 0 0 1 6,6 v13 a6,6 0 0 1 -6,6 h-77 a6,6 0 0 1 -6,-6 v-13 a6,6 0 0 1 6,-6"/><path width="89" height="25" clip-path="url(#satori_bc-id-1-4)" fill="none" stroke="#2a2a2a" stroke-width="2" d="M309.757,133.757 A6,6 0 0 1 314,132 h77 a6,6 0 0 1 6,6 v13 a6,6 0 0 1 -6,6 h-77 a6,6 0 0 1 -6,-6 v-13 A6,6 0 0 1 309.757,133.757"/><g  ><path fill="#aaaaaa" d="M324.3 141.3L321.6 141.3L321.6 140.3L328.2 140.3L328.2 141.3L325.4 141.3L325.4 149L324.3 149L324.3 141.3ZM329.6 151.4L329.6 151.4L329.8 150.5L329.9 150.5Q330.3 150.6 330.5 150.5Q330.8 150.5 331.0 150.3Q331.2 150.0 331.4 149.6L331.4 149.6L331.6 149.0L329.1 142.4L330.2 142.4L331.6 146.3Q331.8 146.9 332.0 147.5L332.0 147.5Q332.1 147.8 332.1 148.0L332.1 148.0Q332.2 147.8 332.3 147.5L332.3 147.5Q332.4 146.9 332.6 146.3L332.6 146.3L334.0 142.4L335.2 142.4L332.3 150.0Q332.1 150.5 331.8 150.8Q331.5 151.2 331.2 151.3Q330.8 151.5 330.3 151.5L330.3 151.5Q330.1 151.5 329.9 151.5Q329.6 151.4 329.6 151.4ZM337.5 151.4L336.4 151.4L336.4 142.4L337.4 142.4L337.4 143.5L337.6 143.5Q337.7 143.3 337.9 143.1Q338.1 142.8 338.4 142.6Q338.8 142.4 339.5 142.4L339.5 142.4Q340.3 142.4 340.9 142.8Q341.5 143.2 341.9 143.9Q342.2 144.7 342.2 145.7L342.2 145.7Q342.2 146.8 341.9 147.5Q341.5 148.3 340.9 148.7Q340.3 149.1 339.5 149.1L339.5 149.1Q338.8 149.1 338.5 148.9Q338.1 148.7 337.9 148.4Q337.7 148.2 337.6 148.0L337.6 148.0L337.5 148.0L337.5 151.4ZM339.3 148.2L339.3 148.2Q339.9 148.2 340.3 147.9Q340.7 147.5 340.9 147.0Q341.2 146.4 341.2 145.7L341.2 145.7Q341.2 145.1 341.0 144.5Q340.7 144.0 340.3 143.6Q339.9 143.3 339.3 143.3L339.3 143.3Q338.7 143.3 338.3 143.6Q337.9 143.9 337.7 144.5Q337.5 145.0 337.5 145.7L337.5 145.7Q337.5 146.5 337.7 147.0Q337.9 147.6 338.3 147.9Q338.7 148.2 339.3 148.2ZM346.5 149.1L346.5 149.1Q345.6 149.1 344.9 148.7Q344.2 148.3 343.8 147.5Q343.4 146.8 343.4 145.8Q343.4 144.8 343.8 144.0Q344.2 143.2 344.8 142.8Q345.5 142.4 346.4 142.4L346.4 142.4Q346.9 142.4 347.4 142.5Q347.9 142.7 348.3 143.1Q348.8 143.5 349.0 144.1Q349.2 144.7 349.2 145.6L349.2 145.6L349.2 146.1L344.5 146.1Q344.5 146.7 344.8 147.2L344.8 147.2Q345.0 147.7 345.5 147.9Q345.9 148.2 346.5 148.2L346.5 148.2Q346.9 148.2 347.2 148.1Q347.5 148.0 347.8 147.8Q348 147.5 348.1 147.2L348.1 147.2L349.1 147.5Q349.0 148.0 348.6 148.3Q348.3 148.7 347.7 148.9Q347.2 149.1 346.5 149.1ZM344.5 145.2L344.5 145.2L348.2 145.2Q348.1 144.7 348.0 144.4L348.0 144.4Q347.8 143.9 347.4 143.6Q347.0 143.3 346.4 143.3Q345.8 143.3 345.4 143.6Q345.0 143.9 344.7 144.3L344.7 144.3Q344.5 144.7 344.5 145.2ZM353.7 149.2L353.7 149.2Q352.7 149.2 352.0 148.8Q351.4 148.5 351.0 148.0Q350.6 147.4 350.5 146.7L350.5 146.7L351.7 146.7Q351.7 147.2 352.0 147.5Q352.3 147.8 352.7 148.0Q353.2 148.2 353.7 148.2L353.7 148.2Q354.3 148.2 354.7 148.0Q355.2 147.8 355.5 147.4Q355.8 147.1 355.8 146.6L355.8 146.6Q355.8 146.2 355.5 145.9Q355.3 145.7 354.9 145.5Q354.5 145.3 354.0 145.2L354.0 145.2L353.0 144.9Q351.9 144.6 351.3 144.0Q350.8 143.5 350.8 142.6L350.8 142.6Q350.8 141.9 351.2 141.3Q351.6 140.8 352.2 140.5Q352.9 140.2 353.8 140.2L353.8 140.2Q354.6 140.2 355.3 140.5Q355.9 140.8 356.3 141.3Q356.7 141.8 356.7 142.5L356.7 142.5L355.6 142.5Q355.6 141.8 355.0 141.5Q354.5 141.1 353.7 141.1L353.7 141.1Q353.2 141.1 352.7 141.3Q352.3 141.5 352.1 141.8Q351.8 142.1 351.8 142.6L351.8 142.6Q351.8 143.0 352.1 143.3Q352.4 143.6 352.8 143.7Q353.2 143.9 353.5 144.0L353.5 144.0L354.4 144.2Q354.7 144.3 355.2 144.5Q355.6 144.6 356.0 144.9Q356.4 145.2 356.6 145.6Q356.9 146.0 356.9 146.6L356.9 146.6Q356.9 147.3 356.5 147.9Q356.1 148.5 355.4 148.8Q354.7 149.2 353.7 149.2ZM361.1 149.1L361.1 149.1Q360.2 149.1 359.6 148.7Q358.9 148.3 358.5 147.5Q358.1 146.8 358.1 145.8L358.1 145.8Q358.1 144.7 358.5 144.0Q358.9 143.2 359.6 142.8Q360.2 142.4 361.1 142.4L361.1 142.4Q361.6 142.4 362.0 142.5Q362.4 142.6 362.8 142.8Q363.1 143.1 363.4 143.4Q363.6 143.8 363.8 144.2L363.8 144.2L362.8 144.5Q362.7 144.2 362.5 144.0Q362.4 143.8 362.2 143.6Q362.0 143.5 361.7 143.4Q361.4 143.3 361.1 143.3L361.1 143.3Q360.5 143.3 360.0 143.7Q359.6 144.0 359.4 144.6Q359.2 145.1 359.2 145.8L359.2 145.8Q359.2 146.4 359.4 147.0Q359.6 147.5 360.0 147.9Q360.5 148.2 361.1 148.2L361.1 148.2Q361.5 148.2 361.7 148.1Q362.0 148.0 362.2 147.9Q362.4 147.7 362.6 147.5Q362.7 147.3 362.8 147.0L362.8 147.0L363.8 147.3Q363.7 147.7 363.4 148.1Q363.2 148.4 362.8 148.6Q362.5 148.9 362.0 149.0Q361.6 149.1 361.1 149.1ZM366.4 149L365.3 149L365.3 142.4L366.3 142.4L366.3 143.5L366.4 143.5Q366.6 143.0 367.1 142.7Q367.5 142.4 368.1 142.4L368.1 142.4Q368.2 142.4 368.4 142.4Q368.5 142.4 368.6 142.4L368.6 142.4L368.6 143.4Q368.6 143.4 368.4 143.4Q368.2 143.4 368.0 143.4L368.0 143.4Q367.5 143.4 367.2 143.6Q366.8 143.8 366.6 144.1Q366.4 144.5 366.4 144.9L366.4 144.9L366.4 149ZM370.9 149L369.8 149L369.8 142.4L370.9 142.4L370.9 149ZM370.4 141.4L370.4 141.4Q370.1 141.4 369.8 141.2Q369.6 141.0 369.6 140.7L369.6 140.7Q369.6 140.4 369.8 140.2Q370.1 140.0 370.4 140.0L370.4 140.0Q370.7 140.0 370.9 140.2Q371.1 140.4 371.1 140.7L371.1 140.7Q371.1 141.0 370.9 141.2Q370.7 141.4 370.4 141.4ZM373.8 151.4L372.7 151.4L372.7 142.4L373.8 142.4L373.8 143.5L373.9 143.5Q374.0 143.3 374.2 143.1Q374.4 142.8 374.8 142.6Q375.1 142.4 375.8 142.4L375.8 142.4Q376.6 142.4 377.2 142.8Q377.8 143.2 378.2 143.9Q378.6 144.7 378.6 145.7L378.6 145.7Q378.6 146.8 378.2 147.5Q377.8 148.3 377.2 148.7Q376.6 149.1 375.8 149.1L375.8 149.1Q375.2 149.1 374.8 148.9Q374.4 148.7 374.2 148.4Q374.0 148.2 373.9 148.0L373.9 148.0L373.8 148.0L373.8 151.4ZM375.6 148.2L375.6 148.2Q376.2 148.2 376.6 147.9Q377.1 147.5 377.3 147.0Q377.5 146.4 377.5 145.7L377.5 145.7Q377.5 145.1 377.3 144.5Q377.1 144.0 376.7 143.6Q376.2 143.3 375.6 143.3L375.6 143.3Q375.0 143.3 374.6 143.6Q374.2 143.9 374.0 144.5Q373.8 145.0 373.8 145.7L373.8 145.7Q373.8 146.5 374.0 147.0Q374.2 147.6 374.6 147.9Q375.0 148.2 375.6 148.2ZM381.3 142.4L382.7 142.4L382.7 143.4L381.3 143.4L381.3 147.3Q381.3 147.7 381.5 147.9Q381.7 148.1 382.1 148.1L382.1 148.1Q382.2 148.1 382.3 148.1Q382.5 148.1 382.6 148.1L382.6 148.1L382.8 149.0Q382.7 149.0 382.5 149.1Q382.3 149.1 382.1 149.1L382.1 149.1Q381.2 149.1 380.7 148.6Q380.3 148.2 380.3 147.4L380.3 147.4L380.3 143.4L379.3 143.4L379.3 142.4L380.3 142.4L380.3 140.9L381.3 140.9L381.3 142.4Z "/></g></svg>